<svg width="32" height="32" viewBox="0 0 32 32"  xmlns="http://www.w3.org/2000/svg">
<path fill-rule="evenodd" clip-rule="evenodd" d="M16 3.66666C15.2044 3.66666 14.4413 3.98273 13.8787 4.54534C13.3161 5.10794 13 5.87101 13 6.66666V7.01332C13.7427 6.99999 14.5574 6.99999 15.4534 6.99999H16.548C17.4414 6.99999 18.2574 6.99999 19.0014 7.01332V6.66666C19.0014 6.27258 18.9237 5.88236 18.7729 5.5183C18.622 5.15423 18.4009 4.82346 18.1222 4.54486C17.8435 4.26627 17.5126 4.04532 17.1485 3.89463C16.7844 3.74395 16.3941 3.66648 16 3.66666ZM21 7.10399V6.66666C21 5.34057 20.4733 4.0688 19.5356 3.13112C18.5979 2.19344 17.3261 1.66666 16 1.66666C14.674 1.66666 13.4022 2.19344 12.4645 3.13112C11.5268 4.0688 11 5.34057 11 6.66666V7.10399C10.8094 7.11999 10.6267 7.13866 10.448 7.16132C9.10138 7.32799 7.99204 7.67732 7.04804 8.45999C6.10538 9.24266 5.55738 10.2693 5.14538 11.5627C4.74538 12.816 4.44404 14.4253 4.06538 16.4507L4.03738 16.5973C3.50138 19.4547 3.08004 21.7067 3.00138 23.4813C2.92138 25.3013 3.19338 26.808 4.22004 28.044C5.24671 29.2813 6.67738 29.8253 8.48004 30.0827C10.24 30.3333 12.5294 30.3333 15.4374 30.3333H16.564C19.4707 30.3333 21.7614 30.3333 23.52 30.0827C25.3227 29.8253 26.7547 29.2813 27.7814 28.044C28.808 26.808 29.0774 25.3013 28.9987 23.4813C28.9214 21.7067 28.4987 19.4547 27.9627 16.5973L27.936 16.4507C27.556 14.4253 27.2534 12.8147 26.856 11.5627C26.4427 10.2693 25.896 9.24266 24.952 8.45999C24.0094 7.67732 22.8987 7.32666 21.552 7.16132C21.3684 7.1388 21.1844 7.11969 21 7.10399ZM10.6934 9.14666C9.55338 9.28666 8.86404 9.55199 8.32538 9.99999C7.78804 10.4453 7.40004 11.0733 7.05071 12.1693C6.69471 13.2893 6.41338 14.78 6.01871 16.8853C5.46404 19.8413 5.07071 21.952 5.00004 23.5693C4.93071 25.156 5.18671 26.076 5.75871 26.768C6.33204 27.4573 7.18938 27.8773 8.76271 28.1013C10.3627 28.3307 12.512 28.3333 15.52 28.3333H16.48C19.4894 28.3333 21.636 28.3307 23.2374 28.1027C24.8107 27.8773 25.668 27.4573 26.2414 26.768C26.8147 26.0773 27.0694 25.1573 27.0014 23.568C26.9294 21.9533 26.536 19.8413 25.9814 16.8853C25.5867 14.7787 25.3067 13.2907 24.9494 12.1693C24.6 11.0733 24.2134 10.4453 23.6747 9.99866C23.136 9.55199 22.448 9.28666 21.3067 9.14532C20.1387 9.00132 18.6227 8.99999 16.48 8.99999H15.52C13.3774 8.99999 11.8614 9.00132 10.6934 9.14666ZM19.3307 15.92C19.5287 16.096 19.6488 16.3435 19.6646 16.6079C19.6803 16.8724 19.5905 17.1324 19.4147 17.3307L15.8587 21.3307C15.7712 21.4292 15.6651 21.5095 15.5464 21.5669C15.4278 21.6243 15.2989 21.6577 15.1673 21.6651C15.0358 21.6725 14.904 21.6539 14.7796 21.6102C14.6553 21.5666 14.5408 21.4987 14.4427 21.4107L12.664 19.8107C12.4667 19.6331 12.348 19.3845 12.334 19.1195C12.32 18.8544 12.4119 18.5946 12.5894 18.3973C12.7669 18.2 13.0155 18.0813 13.2806 18.0673C13.5456 18.0533 13.8054 18.1451 14.0027 18.3227L15.032 19.2507L17.92 16.0027C18.0961 15.8046 18.3435 15.6846 18.608 15.6688C18.8725 15.6531 19.1324 15.7442 19.3307 15.92Z" />
</svg>
