<svg width="33" height="32" viewBox="0 0 33 32"  xmlns="http://www.w3.org/2000/svg">
<path fill-rule="evenodd" clip-rule="evenodd" d="M11.3324 4.33333C11.7058 3.54667 12.5098 3 13.4418 3H18.7751C19.7058 3 20.5098 3.54667 20.8844 4.33333C21.7951 4.34133 22.5058 4.38267 23.1404 4.63067C23.8981 4.92703 24.557 5.43068 25.0418 6.084C25.5311 6.74133 25.7604 7.58667 26.0764 8.748L26.1258 8.92933L26.9124 11.8187C27.4374 12.0826 27.8974 12.4596 28.2591 12.9227C29.0884 13.9853 29.2351 15.2507 29.0884 16.7013C28.9444 18.1093 28.5018 19.8827 27.9471 22.1027L27.9111 22.2427C27.5604 23.6467 27.2751 24.7867 26.9378 25.676C26.5831 26.604 26.1351 27.364 25.3951 27.9413C24.6564 28.5187 23.8098 28.768 22.8244 28.888C21.8791 29 20.7044 29 19.2578 29H12.9591C11.5124 29 10.3364 29 9.39245 28.8867C8.40578 28.7693 7.56045 28.5187 6.82045 27.94C6.08178 27.364 5.63378 26.604 5.27911 25.676C4.94045 24.7867 4.65645 23.6467 4.30578 22.2427L4.26978 22.1027C3.71512 19.8827 3.27112 18.1093 3.12845 16.7027C2.98178 15.2493 3.12845 13.9853 3.95645 12.9227C4.33378 12.44 4.78578 12.0827 5.30311 11.8187L6.08978 8.92933L6.14045 8.748C6.45645 7.58667 6.68578 6.74133 7.17512 6.08267C7.66009 5.42984 8.31898 4.92666 9.07645 4.63067C9.71111 4.38267 10.4204 4.34 11.3324 4.33333ZM11.3338 6.33733C10.4511 6.34667 10.0978 6.38 9.80445 6.49467C9.3964 6.65424 9.04153 6.92548 8.78045 7.27733C8.54578 7.59333 8.40711 8.03467 8.02045 9.45733L7.54845 11.1853C8.93245 11 10.7191 11 12.9378 11H19.2778C21.4978 11 23.2844 11 24.6671 11.1853L24.1964 9.456C23.8084 8.03333 23.6711 7.592 23.4364 7.276C23.1754 6.92414 22.8205 6.65291 22.4124 6.49333C22.1191 6.37867 21.7644 6.34533 20.8818 6.336C20.6923 6.73421 20.3938 7.07057 20.0209 7.30608C19.6481 7.54159 19.2161 7.66662 18.7751 7.66667H13.4418C13.0008 7.66662 12.5688 7.54159 12.196 7.30608C11.8231 7.07057 11.5246 6.73421 11.3351 6.336M13.4418 5C13.3534 5 13.2686 5.03512 13.2061 5.09763C13.1436 5.16014 13.1084 5.24493 13.1084 5.33333C13.1084 5.42174 13.1436 5.50652 13.2061 5.56904C13.2686 5.63155 13.3534 5.66667 13.4418 5.66667H18.7751C18.8635 5.66667 18.9483 5.63155 19.0108 5.56904C19.0733 5.50652 19.1084 5.42174 19.1084 5.33333C19.1084 5.24493 19.0733 5.16014 19.0108 5.09763C18.9483 5.03512 18.8635 5 18.7751 5H13.4418ZM7.70845 13.1813C6.49511 13.3573 5.90711 13.6773 5.53512 14.1547C5.16178 14.6307 4.99511 15.2773 5.11911 16.4987C5.24578 17.7467 5.65245 19.3787 6.23111 21.6987C6.60178 23.176 6.85778 24.2 7.15111 24.9653C7.43111 25.704 7.70711 26.0947 8.05378 26.3653C8.39912 26.6347 8.84445 26.8067 9.63112 26.9013C10.4444 26.9987 11.4978 27 13.0231 27H19.1964C20.7204 27 21.7764 26.9987 22.5884 26.9013C23.3751 26.808 23.8204 26.6347 24.1658 26.3653C24.5124 26.0947 24.7871 25.704 25.0698 24.9653C25.3604 24.2 25.6178 23.176 25.9871 21.6987C26.5671 19.3787 26.9738 17.7467 27.0991 16.4987C27.2244 15.2773 27.0564 14.6293 26.6844 14.1533C26.3124 13.6773 25.7244 13.3573 24.5098 13.1813C23.2698 13.0027 21.5871 13 19.1964 13H13.0231C10.6324 13 8.94978 13.0027 7.70978 13.1813" />
</svg>
