<svg width="33" height="32" viewBox="0 0 33 32" fill="none" xmlns="http://www.w3.org/2000/svg">
<path d="M12.7043 20.5307C12.5992 20.4488 12.4788 20.3889 12.3501 20.3542C12.2215 20.3196 12.0872 20.311 11.9552 20.329C11.8232 20.347 11.6961 20.3912 11.5814 20.4589C11.4668 20.5267 11.3668 20.6167 11.2873 20.7237C11.2079 20.8307 11.1507 20.9524 11.119 21.0818C11.0872 21.2112 11.0817 21.3456 11.1027 21.4772C11.1236 21.6088 11.1707 21.7348 11.241 21.8479C11.3114 21.9611 11.4036 22.059 11.5123 22.136C12.8394 23.1281 14.4514 23.665 16.1083 23.6667C17.7653 23.665 19.3773 23.1281 20.7043 22.136C20.8131 22.059 20.9053 21.9611 20.9757 21.8479C21.046 21.7348 21.0931 21.6088 21.114 21.4772C21.135 21.3456 21.1294 21.2112 21.0977 21.0818C21.066 20.9524 21.0088 20.8307 20.9294 20.7237C20.8499 20.6167 20.7499 20.5267 20.6352 20.4589C20.5206 20.3912 20.3935 20.347 20.2615 20.329C20.1295 20.311 19.9952 20.3196 19.8666 20.3542C19.7379 20.3889 19.6175 20.4488 19.5123 20.5307C18.5299 21.2666 17.3359 21.6651 16.1083 21.6667C14.8808 21.6651 13.6868 21.2666 12.7043 20.5307Z" />
<path fill-rule="evenodd" clip-rule="evenodd" d="M16.1084 1.66666C15.1644 1.66666 14.307 1.93732 13.375 2.38932C12.4764 2.82666 11.4364 3.47199 10.139 4.27732L7.38302 5.98799C6.15636 6.75066 5.17102 7.36132 4.41369 7.94132C3.62836 8.54132 3.02569 9.15466 2.58969 9.95066C2.15502 10.744 1.96036 11.5893 1.86569 12.588C1.77502 13.5547 1.77502 14.7387 1.77502 16.2227V18.3733C1.77502 20.912 1.77502 22.916 1.97902 24.4827C2.18702 26.0893 2.62702 27.3867 3.61902 28.412C4.61502 29.4427 5.88169 29.904 7.45236 30.1213C8.97236 30.3333 10.9164 30.3333 13.3644 30.3333H18.8524C21.3004 30.3333 23.2444 30.3333 24.7644 30.1213C26.3337 29.904 27.6017 29.4427 28.599 28.412C29.5897 27.3867 30.0297 26.0893 30.239 24.4827C30.4417 22.916 30.4417 20.912 30.4417 18.3733V16.2227C30.4417 14.7387 30.4417 13.556 30.351 12.588C30.2577 11.588 30.0617 10.744 29.627 9.95066C29.191 9.15466 28.587 8.54266 27.803 7.94132C27.0457 7.35999 26.0617 6.75066 24.8337 5.98799L22.0777 4.27732C20.7804 3.47199 19.7404 2.82666 18.8404 2.38932C17.911 1.93599 17.0537 1.66666 16.1084 1.66666ZM11.1484 6.00532C12.5017 5.16532 13.455 4.57599 14.251 4.18799C15.0257 3.81066 15.575 3.66666 16.1084 3.66666C16.6417 3.66666 17.191 3.81066 17.9657 4.18799C18.763 4.57466 19.715 5.16532 21.0684 6.00532L23.735 7.65999C25.0164 8.45599 25.9164 9.01466 26.5884 9.52932C27.2404 10.0293 27.615 10.4413 27.8724 10.9107C28.1297 11.3813 28.2804 11.932 28.359 12.7747C28.4404 13.6387 28.4417 14.728 28.4417 16.272V18.3C28.4417 20.9267 28.439 22.8013 28.255 24.224C28.0737 25.6213 27.731 26.432 27.1617 27.0227C26.595 27.608 25.8244 27.956 24.4897 28.1413C23.1217 28.3307 21.3177 28.3333 18.775 28.3333H13.4417C10.8977 28.3333 9.09502 28.3307 7.72702 28.1413C6.39236 27.9547 5.62169 27.608 5.05636 27.0213C4.48569 26.432 4.14302 25.6213 3.96302 24.224C3.77636 22.8013 3.77502 20.928 3.77502 18.3V16.272C3.77502 14.728 3.77502 13.6387 3.85769 12.7747C3.93636 11.932 4.08702 11.3813 4.34436 10.9107C4.60169 10.4413 4.97636 10.0293 5.62969 9.52932C6.30036 9.01466 7.20036 8.45599 8.48169 7.65999L11.1484 6.00532Z" />
</svg>
