<svg width="27" height="26" viewBox="0 0 27 26"  xmlns="http://www.w3.org/2000/svg">
<path fill-rule="evenodd" clip-rule="evenodd" d="M13.1084 1.35416C11.7436 1.35416 10.4348 1.89631 9.46972 2.86134C8.50469 3.82637 7.96254 5.13523 7.96254 6.49999C7.96254 7.86475 8.50469 9.17361 9.46972 10.1386C10.4348 11.1037 11.7436 11.6458 13.1084 11.6458C14.4731 11.6458 15.782 11.1037 16.747 10.1386C17.7121 9.17361 18.2542 7.86475 18.2542 6.49999C18.2542 5.13523 17.7121 3.82637 16.747 2.86134C15.782 1.89631 14.4731 1.35416 13.1084 1.35416ZM9.58754 6.49999C9.58754 5.56621 9.95849 4.67067 10.6188 4.01038C11.2791 3.3501 12.1746 2.97916 13.1084 2.97916C14.0422 2.97916 14.9377 3.3501 15.598 4.01038C16.2583 4.67067 16.6292 5.56621 16.6292 6.49999C16.6292 7.43377 16.2583 8.32931 15.598 8.98959C14.9377 9.64988 14.0422 10.0208 13.1084 10.0208C12.1746 10.0208 11.2791 9.64988 10.6188 8.98959C9.95849 8.32931 9.58754 7.43377 9.58754 6.49999ZM13.1084 13.2708C10.6026 13.2708 8.29296 13.8407 6.58238 14.8027C4.89671 15.7517 3.62921 17.1882 3.62921 18.9583V19.0688C3.62813 20.3277 3.62704 21.9072 5.01263 23.036C5.69404 23.5907 6.64846 23.9861 7.93763 24.2461C9.22896 24.5082 10.9135 24.6458 13.1084 24.6458C15.3032 24.6458 16.9867 24.5082 18.2802 24.2461C19.5694 23.9861 20.5227 23.5907 21.2052 23.036C22.5908 21.9072 22.5886 20.3277 22.5875 19.0688V18.9583C22.5875 17.1882 21.32 15.7517 19.6355 14.8027C17.9238 13.8407 15.6152 13.2708 13.1084 13.2708ZM5.25421 18.9583C5.25421 18.0364 5.92804 17.0354 7.37863 16.2197C8.80429 15.418 10.828 14.8958 13.1095 14.8958C15.3888 14.8958 17.4125 15.418 18.8381 16.2197C20.2898 17.0354 20.9625 18.0364 20.9625 18.9583C20.9625 20.3753 20.9192 21.1727 20.1782 21.775C19.7774 22.1022 19.1057 22.4217 17.9574 22.6536C16.8123 22.8854 15.2469 23.0208 13.1084 23.0208C10.9699 23.0208 9.40338 22.8854 8.25938 22.6536C7.11104 22.4217 6.43938 22.1022 6.03854 21.7761C5.29754 21.1727 5.25421 20.3753 5.25421 18.9583Z" />
</svg>
