<svg width="24" height="25" viewBox="0 0 24 25" fill="none" xmlns="http://www.w3.org/2000/svg">
<path fill-rule="evenodd" clip-rule="evenodd" d="M4.43005 9.13596C4.49418 9.06114 4.57242 8.99968 4.66031 8.95512C4.7482 8.91055 4.84401 8.88373 4.94227 8.87621C5.04052 8.86869 5.1393 8.8806 5.23295 8.91127C5.3266 8.94194 5.41328 8.99077 5.48805 9.05496L12.0001 14.636L18.5121 9.05496C18.6639 8.93309 18.8571 8.87503 19.051 8.89306C19.2449 8.91109 19.4241 9.0038 19.5508 9.15158C19.6776 9.29936 19.7419 9.49064 19.7302 9.68497C19.7185 9.87931 19.6316 10.0615 19.4881 10.193L12.4881 16.193C12.3521 16.3094 12.179 16.3734 12.0001 16.3734C11.8211 16.3734 11.648 16.3094 11.5121 16.193L4.51205 10.193C4.36124 10.0635 4.26799 9.87942 4.2528 9.68122C4.23762 9.48303 4.30173 9.28691 4.43105 9.13596" fill="#2E2E2E"/>
</svg>
