<svg width="25" height="24" viewBox="0 0 25 24" fill="none" xmlns="http://www.w3.org/2000/svg">
<path fill-rule="evenodd" clip-rule="evenodd" d="M16.3081 4.42999C16.383 4.49412 16.4444 4.57236 16.489 4.66025C16.5335 4.74814 16.5604 4.84395 16.5679 4.94221C16.5754 5.04046 16.5635 5.13924 16.5328 5.23289C16.5021 5.32653 16.4533 5.41322 16.3891 5.48799L10.8081 12L16.3891 18.512C16.511 18.6638 16.5691 18.8571 16.551 19.0509C16.533 19.2448 16.4403 19.424 16.2925 19.5508C16.1447 19.6775 15.9535 19.7418 15.7591 19.7301C15.5648 19.7184 15.3826 19.6316 15.2511 19.488L9.25113 12.488C9.13467 12.3521 9.07066 12.179 9.07066 12C9.07066 11.821 9.13467 11.6479 9.25113 11.512L15.2511 4.51199C15.3806 4.36118 15.5647 4.26793 15.7629 4.25274C15.9611 4.23756 16.1572 4.30167 16.3081 4.43099" fill="#2E2E2E"/>
</svg>
