<svg width="25" height="25" viewBox="0 0 25 25" fill="none" xmlns="http://www.w3.org/2000/svg">
<path fill-rule="evenodd" clip-rule="evenodd" d="M12.3707 2.14648C10.3152 2.14648 8.344 2.963 6.89059 4.41641C5.43718 5.86981 4.62067 7.84106 4.62067 9.89648V10.6005C4.62061 11.2974 4.41428 11.9787 4.02767 12.5585L2.88067 14.2815C1.54667 16.2815 2.56467 18.9995 4.88367 19.6315C5.63867 19.8375 6.40067 20.0115 7.16767 20.1545L7.16967 20.1595C7.93767 22.2115 9.99267 23.6465 12.3707 23.6465C14.7487 23.6465 16.8037 22.2115 17.5727 20.1595L17.5747 20.1545C18.3429 20.0116 19.1048 19.8371 19.8587 19.6315C22.1777 18.9995 23.1957 16.2815 21.8617 14.2815L20.7137 12.5585C20.3271 11.9787 20.1207 11.2974 20.1207 10.6005V9.89648C20.1207 7.84106 19.3042 5.86981 17.8507 4.41641C16.3973 2.963 14.4261 2.14648 12.3707 2.14648ZM15.7467 20.4335C13.5036 20.7015 11.2367 20.7015 8.99367 20.4335C9.70467 21.4545 10.9417 22.1465 12.3707 22.1465C13.7997 22.1465 15.0357 21.4545 15.7467 20.4335ZM6.12067 9.89648C6.12067 8.23888 6.77915 6.64917 7.95125 5.47707C9.12335 4.30496 10.7131 3.64648 12.3707 3.64648C14.0283 3.64648 15.618 4.30496 16.7901 5.47707C17.9622 6.64917 18.6207 8.23888 18.6207 9.89648V10.6005C18.6207 11.5935 18.9147 12.5645 19.4657 13.3905L20.6137 15.1135C20.7916 15.3799 20.9035 15.6848 20.9404 16.003C20.9772 16.3212 20.9378 16.6436 20.8255 16.9436C20.7131 17.2436 20.5311 17.5126 20.2943 17.7283C20.0575 17.9441 19.7728 18.1004 19.4637 18.1845C14.8195 19.4511 9.92086 19.4511 5.27667 18.1845C4.96784 18.1002 4.68344 17.9438 4.44691 17.728C4.21037 17.5123 4.02847 17.2435 3.91617 16.9437C3.80387 16.6439 3.7644 16.3218 3.80099 16.0037C3.83759 15.6857 3.94921 15.3809 4.12667 15.1145L5.27667 13.3905C5.82721 12.5642 6.12087 11.5934 6.12067 10.6005V9.89648Z" fill="#5D381D"/>
</svg>
