<svg width="25" height="25" viewBox="0 0 25 25" fill="none" xmlns="http://www.w3.org/2000/svg">
<path d="M10.2169 9.59464C10.0747 9.46216 9.8867 9.39003 9.6924 9.39346C9.4981 9.39689 9.31271 9.4756 9.1753 9.61301C9.03789 9.75043 8.95917 9.93581 8.95575 10.1301C8.95232 10.3244 9.02444 10.5125 9.15692 10.6546L11.1269 12.6246L9.15692 14.5946C9.08323 14.6633 9.02413 14.7461 8.98314 14.8381C8.94215 14.9301 8.92011 15.0294 8.91833 15.1301C8.91655 15.2308 8.93508 15.3308 8.9728 15.4242C9.01052 15.5176 9.06666 15.6025 9.13788 15.6737C9.2091 15.7449 9.29394 15.801 9.38732 15.8388C9.48071 15.8765 9.58074 15.895 9.68144 15.8932C9.78215 15.8915 9.88146 15.8694 9.97346 15.8284C10.0655 15.7874 10.1483 15.7283 10.2169 15.6546L12.1869 13.6846L14.1569 15.6546C14.2991 15.7871 14.4871 15.8592 14.6814 15.8558C14.8757 15.8524 15.0611 15.7737 15.1985 15.6363C15.336 15.4988 15.4147 15.3135 15.4181 15.1192C15.4215 14.9249 15.3494 14.7368 15.2169 14.5946L13.2469 12.6246L15.2169 10.6546C15.2906 10.586 15.3497 10.5032 15.3907 10.4112C15.4317 10.3192 15.4537 10.2199 15.4555 10.1192C15.4573 10.0185 15.4388 9.91843 15.401 9.82504C15.3633 9.73165 15.3072 9.64682 15.236 9.5756C15.1647 9.50438 15.0799 9.44823 14.9865 9.41051C14.8931 9.37279 14.7931 9.35427 14.6924 9.35604C14.5917 9.35782 14.4924 9.37986 14.4004 9.42085C14.3084 9.46185 14.2256 9.52095 14.1569 9.59464L12.1869 11.5646L10.2169 9.59464Z" fill="#5D381D"/>
<path fill-rule="evenodd" clip-rule="evenodd" d="M12.1869 1.87463C6.24989 1.87463 1.43689 6.68763 1.43689 12.6246C1.43689 18.5616 6.24989 23.3746 12.1869 23.3746C18.1239 23.3746 22.9369 18.5616 22.9369 12.6246C22.9369 6.68763 18.1239 1.87463 12.1869 1.87463ZM2.93689 12.6246C2.93689 10.1714 3.91144 7.81861 5.64615 6.0839C7.38086 4.34918 9.73364 3.37463 12.1869 3.37463C14.6401 3.37463 16.9929 4.34918 18.7276 6.0839C20.4623 7.81861 21.4369 10.1714 21.4369 12.6246C21.4369 15.0779 20.4623 17.4307 18.7276 19.1654C16.9929 20.9001 14.6401 21.8746 12.1869 21.8746C9.73364 21.8746 7.38086 20.9001 5.64615 19.1654C3.91144 17.4307 2.93689 15.0779 2.93689 12.6246Z" fill="#5D381D"/>
</svg>
