<svg width="24" height="25" viewBox="0 0 24 25" fill="none" xmlns="http://www.w3.org/2000/svg">
<path fill-rule="evenodd" clip-rule="evenodd" d="M9.93063 3.30908H14.0526C15.8956 3.30908 17.3546 3.30908 18.4966 3.46208C19.6706 3.62008 20.6216 3.95208 21.3716 4.70008C22.4016 5.72708 22.6516 7.14008 22.7306 9.01708V9.04108C22.7386 9.20508 22.7456 9.37208 22.7386 9.51308C22.7355 9.71548 22.6845 9.91425 22.5896 10.0931C22.5203 10.2127 22.4295 10.3185 22.3216 10.4051C22.2407 10.4702 22.1559 10.5303 22.0676 10.5851C21.9046 10.6881 21.6826 10.8121 21.4236 10.9571L21.4036 10.9671C21.2088 11.0752 21.0465 11.2335 20.9335 11.4255C20.8205 11.6175 20.7609 11.8363 20.7609 12.0591C20.7609 12.2819 20.8205 12.5006 20.9335 12.6926C21.0465 12.8847 21.2088 13.0429 21.4036 13.1511L21.4236 13.1611C21.6836 13.3061 21.9036 13.4301 22.0676 13.5331C22.1526 13.5871 22.2416 13.6471 22.3216 13.7131C22.3956 13.7741 22.5066 13.8771 22.5896 14.0251C22.7096 14.2391 22.7326 14.4551 22.7396 14.6051C22.7456 14.7451 22.7386 14.9131 22.7316 15.0771L22.7306 15.1011C22.6506 16.9771 22.4006 18.3911 21.3716 19.4181C20.6216 20.1661 19.6716 20.4981 18.4966 20.6561C17.3546 20.8091 15.8956 20.8091 14.0526 20.8091H9.93163C8.08863 20.8091 6.62963 20.8091 5.48763 20.6561C4.31263 20.4981 3.36263 20.1661 2.61263 19.4181C1.58263 18.3911 1.33263 16.9781 1.25363 15.1011V15.0771C1.24426 14.9199 1.24126 14.7625 1.24463 14.6051C1.25163 14.4551 1.27463 14.2391 1.39463 14.0251C1.46393 13.9054 1.5548 13.7996 1.66263 13.7131C1.74355 13.648 1.82837 13.5879 1.91663 13.5331C2.07963 13.4301 2.30163 13.3061 2.56063 13.1611L2.58063 13.1511C2.77542 13.0429 2.93774 12.8847 3.05076 12.6926C3.16378 12.5006 3.22338 12.2819 3.22338 12.0591C3.22338 11.8363 3.16378 11.6175 3.05076 11.4255C2.93774 11.2335 2.77542 11.0752 2.58063 10.9671L2.56063 10.9571C2.30063 10.8121 2.08063 10.6881 1.91663 10.5851C1.82822 10.5305 1.74338 10.4704 1.66263 10.4051C1.5548 10.3185 1.46393 10.2127 1.39463 10.0931C1.29945 9.91434 1.24804 9.71556 1.24463 9.51308C1.24092 9.34768 1.24426 9.1822 1.25463 9.01708C1.33263 7.14108 1.58263 5.72708 2.61263 4.70008C3.36263 3.95208 4.31263 3.62008 5.48763 3.46208C6.62863 3.30908 8.08663 3.30908 9.93063 3.30908ZM21.2416 14.7851V14.8051L21.2326 15.0381C21.1546 16.8941 20.9016 17.7701 20.3126 18.3561C19.8886 18.7801 19.3066 19.0341 18.2976 19.1691C17.2676 19.3071 15.9086 19.3091 13.9976 19.3091H9.98763C8.07663 19.3091 6.71763 19.3071 5.68763 19.1691C4.67763 19.0341 4.09663 18.7801 3.67163 18.3561C3.08363 17.7701 2.83063 16.8941 2.75163 15.0381C2.74825 14.9538 2.74559 14.8694 2.74363 14.7851C2.86763 14.7081 3.04663 14.6081 3.31163 14.4601C3.73918 14.2217 4.09532 13.8735 4.34325 13.4514C4.59118 13.0293 4.7219 12.5486 4.7219 12.0591C4.7219 11.5696 4.59118 11.0889 4.34325 10.6668C4.09532 10.2447 3.73918 9.89647 3.31163 9.65808C3.12026 9.55335 2.93089 9.445 2.74363 9.33308V9.31308L2.75263 9.08008C2.83063 7.22408 3.08363 6.34808 3.67263 5.76208C4.09663 5.33808 4.67763 5.08408 5.68763 4.94908C6.71763 4.81108 8.07663 4.80908 9.98763 4.80908H13.9976C15.9086 4.80908 17.2676 4.81108 18.2976 4.94908C19.3076 5.08408 19.8886 5.33808 20.3136 5.76208C20.9006 6.34808 21.1546 7.22408 21.2326 9.08008L21.2416 9.31308V9.33308C21.1176 9.41008 20.9386 9.51008 20.6736 9.65808C20.2458 9.89626 19.8894 10.2444 19.6413 10.6665C19.3931 11.0887 19.2623 11.5694 19.2623 12.0591C19.2623 12.5487 19.3931 13.0295 19.6413 13.4516C19.8894 13.8737 20.2458 14.2219 20.6736 14.4601C20.9376 14.6081 21.1176 14.7081 21.2416 14.7851ZM15.5216 8.52908C15.6621 8.66971 15.741 8.86033 15.741 9.05908C15.741 9.25783 15.6621 9.44846 15.5216 9.58908L9.52163 15.5891C9.37945 15.7216 9.19141 15.7937 8.9971 15.7903C8.8028 15.7868 8.61742 15.7081 8.48001 15.5707C8.34259 15.4333 8.26388 15.2479 8.26045 15.0536C8.25702 14.8593 8.32915 14.6713 8.46163 14.5291L14.4616 8.52908C14.6023 8.38863 14.7929 8.30974 14.9916 8.30974C15.1904 8.30974 15.381 8.38863 15.5216 8.52908Z" fill="#763F21"/>
<path d="M15.4917 14.5591C15.4917 14.8243 15.3863 15.0787 15.1988 15.2662C15.0113 15.4537 14.7569 15.5591 14.4917 15.5591C14.2265 15.5591 13.9721 15.4537 13.7846 15.2662C13.5971 15.0787 13.4917 14.8243 13.4917 14.5591C13.4917 14.2939 13.5971 14.0395 13.7846 13.852C13.9721 13.6644 14.2265 13.5591 14.4917 13.5591C14.7569 13.5591 15.0113 13.6644 15.1988 13.852C15.3863 14.0395 15.4917 14.2939 15.4917 14.5591ZM10.4917 9.55908C10.4917 9.8243 10.3863 10.0787 10.1988 10.2662C10.0113 10.4537 9.75692 10.5591 9.4917 10.5591C9.22648 10.5591 8.97213 10.4537 8.78459 10.2662C8.59706 10.0787 8.4917 9.8243 8.4917 9.55908C8.4917 9.29387 8.59706 9.03951 8.78459 8.85198C8.97213 8.66444 9.22648 8.55908 9.4917 8.55908C9.75692 8.55908 10.0113 8.66444 10.1988 8.85198C10.3863 9.03951 10.4917 9.29387 10.4917 9.55908Z" fill="#763F21"/>
</svg>
