<svg width="25" height="25" viewBox="0 0 25 25" fill="none" xmlns="http://www.w3.org/2000/svg">
<path d="M2.40601 12.0295C2.40601 8.25854 2.40601 6.37254 3.57801 5.20154C4.74901 4.02954 6.63501 4.02954 10.406 4.02954H14.406C18.177 4.02954 20.063 4.02954 21.234 5.20154C22.406 6.37254 22.406 8.25854 22.406 12.0295C22.406 15.8005 22.406 17.6865 21.234 18.8575C20.063 20.0295 18.177 20.0295 14.406 20.0295H10.406C6.63501 20.0295 4.74901 20.0295 3.57801 18.8575C2.40601 17.6865 2.40601 15.8005 2.40601 12.0295Z" stroke="#5D381D" stroke-width="1.5"/>
<path d="M10.406 16.0295H6.40601M14.406 16.0295H12.906M2.40601 10.0295H22.406" stroke="#5D381D" stroke-width="1.5" stroke-linecap="round"/>
</svg>
