<svg width="24" height="25" viewBox="0 0 24 25" fill="none" xmlns="http://www.w3.org/2000/svg">
<path d="M3.9917 10.2021C3.9917 5.70508 7.5737 2.05908 11.9917 2.05908C16.4097 2.05908 19.9917 5.70508 19.9917 10.2021C19.9917 14.6641 17.4387 19.8721 13.4547 21.7331C12.9968 21.9475 12.4973 22.0586 11.9917 22.0586C11.4861 22.0586 10.9866 21.9475 10.5287 21.7331C6.5447 19.8711 3.9917 14.6651 3.9917 10.2031V10.2021Z" stroke="#763F21" stroke-width="1.5"/>
<path d="M11.9917 13.0591C13.6486 13.0591 14.9917 11.7159 14.9917 10.0591C14.9917 8.40223 13.6486 7.05908 11.9917 7.05908C10.3348 7.05908 8.9917 8.40223 8.9917 10.0591C8.9917 11.7159 10.3348 13.0591 11.9917 13.0591Z" stroke="#763F21" stroke-width="1.5"/>
</svg>
