<svg width="24" height="25" viewBox="0 0 24 25" fill="none" xmlns="http://www.w3.org/2000/svg">
<path d="M4 10.767C4 6.26996 7.582 2.62396 12 2.62396C16.418 2.62396 20 6.26996 20 10.767C20 15.229 17.447 20.437 13.463 22.298C13.0051 22.5124 12.5056 22.6235 12 22.6235C11.4944 22.6235 10.9949 22.5124 10.537 22.298C6.553 20.436 4 15.23 4 10.768V10.767Z" stroke="#2E2E2E" stroke-width="1.5"/>
<path d="M12 13.624C13.6569 13.624 15 12.2808 15 10.624C15 8.96711 13.6569 7.62396 12 7.62396C10.3431 7.62396 9 8.96711 9 10.624C9 12.2808 10.3431 13.624 12 13.624Z" stroke="#2E2E2E" stroke-width="1.5"/>
</svg>
