<svg width="24" height="25" viewBox="0 0 24 25" fill="none" xmlns="http://www.w3.org/2000/svg">
<path d="M12.75 9.1181C12.75 8.91919 12.671 8.72843 12.5303 8.58777C12.3897 8.44712 12.1989 8.3681 12 8.3681C11.8011 8.3681 11.6103 8.44712 11.4697 8.58777C11.329 8.72843 11.25 8.91919 11.25 9.1181V11.3681H9C8.80109 11.3681 8.61032 11.4471 8.46967 11.5878C8.32902 11.7284 8.25 11.9192 8.25 12.1181C8.25 12.317 8.32902 12.5078 8.46967 12.6484C8.61032 12.7891 8.80109 12.8681 9 12.8681H11.25V15.1181C11.25 15.317 11.329 15.5078 11.4697 15.6484C11.6103 15.7891 11.8011 15.8681 12 15.8681C12.1989 15.8681 12.3897 15.7891 12.5303 15.6484C12.671 15.5078 12.75 15.317 12.75 15.1181V12.8681H15C15.1989 12.8681 15.3897 12.7891 15.5303 12.6484C15.671 12.5078 15.75 12.317 15.75 12.1181C15.75 11.9192 15.671 11.7284 15.5303 11.5878C15.3897 11.4471 15.1989 11.3681 15 11.3681H12.75V9.1181Z" fill="#2E2E2E"/>
<path fill-rule="evenodd" clip-rule="evenodd" d="M12 1.3681C6.063 1.3681 1.25 6.1811 1.25 12.1181C1.25 18.0551 6.063 22.8681 12 22.8681C17.937 22.8681 22.75 18.0551 22.75 12.1181C22.75 6.1811 17.937 1.3681 12 1.3681ZM2.75 12.1181C2.75 9.66485 3.72455 7.31208 5.45926 5.57737C7.19397 3.84265 9.54675 2.8681 12 2.8681C14.4533 2.8681 16.806 3.84265 18.5407 5.57737C20.2754 7.31208 21.25 9.66485 21.25 12.1181C21.25 14.5714 20.2754 16.9241 18.5407 18.6588C16.806 20.3936 14.4533 21.3681 12 21.3681C9.54675 21.3681 7.19397 20.3936 5.45926 18.6588C3.72455 16.9241 2.75 14.5714 2.75 12.1181Z" fill="#2E2E2E"/>
</svg>
