<svg width="25" height="24" viewBox="0 0 25 24" fill="none" xmlns="http://www.w3.org/2000/svg">
<path fill-rule="evenodd" clip-rule="evenodd" d="M12.3531 2.75C11.2041 2.75 10.0663 2.97633 9.00467 3.41605C7.94307 3.85578 6.97848 4.5003 6.16597 5.31282C5.35345 6.12533 4.70893 7.08992 4.2692 8.15152C3.82947 9.21312 3.60315 10.3509 3.60315 11.5C3.60315 12.6491 3.82947 13.7869 4.2692 14.8485C4.70893 15.9101 5.35345 16.8747 6.16597 17.6872C6.97848 18.4997 7.94307 19.1442 9.00467 19.5839C10.0663 20.0237 11.2041 20.25 12.3531 20.25C14.6738 20.25 16.8994 19.3281 18.5403 17.6872C20.1813 16.0462 21.1031 13.8206 21.1031 11.5C21.1031 9.17936 20.1813 6.95376 18.5403 5.31282C16.8994 3.67187 14.6738 2.75 12.3531 2.75ZM2.10315 11.5C2.10315 5.84 6.69315 1.25 12.3531 1.25C18.0131 1.25 22.6031 5.84 22.6031 11.5C22.6031 14.06 21.6642 16.402 20.1122 18.198L23.3832 21.47C23.4568 21.5387 23.5159 21.6215 23.5569 21.7135C23.5979 21.8055 23.62 21.9048 23.6217 22.0055C23.6235 22.1062 23.605 22.2062 23.5673 22.2996C23.5296 22.393 23.4734 22.4778 23.4022 22.549C23.331 22.6203 23.2461 22.6764 23.1527 22.7141C23.0594 22.7518 22.9593 22.7704 22.8586 22.7686C22.7579 22.7668 22.6586 22.7448 22.5666 22.7038C22.4746 22.6628 22.3918 22.6037 22.3231 22.53L19.0511 19.259C17.1915 20.8691 14.813 21.7536 12.3531 21.75C6.69315 21.75 2.10315 17.16 2.10315 11.5Z" fill="#5D381D"/>
</svg>
