<svg width="66" height="72" viewBox="0 0 66 72" fill="none" xmlns="http://www.w3.org/2000/svg">
<path d="M24.6667 37.3333L29.43 42.6666L41.3334 29.3333" stroke="#7CE657" stroke-width="4.5" stroke-linecap="round" stroke-linejoin="round"/>
<path d="M3 30.7233C3 20.0633 3 14.7333 4.26 12.94C5.51667 11.15 10.5267 9.43329 20.55 6.00329L22.46 5.34996C27.6833 3.55996 30.2933 2.66663 33 2.66663C35.7033 2.66663 38.3167 3.55996 43.54 5.34996L45.45 6.00329C55.4733 9.43329 60.4833 11.15 61.74 12.94C63 14.7333 63 20.0666 63 30.7233V35.97C63 44.32 60.21 50.76 56.3333 55.68M3.64333 42.6666C6.5 56.9933 18.2533 64.3766 25.9967 67.7566C28.4 68.8066 29.6033 69.3333 33 69.3333C36.4 69.3333 37.6 68.8066 40.0033 67.7566C41.9333 66.9166 44.1067 65.8233 46.3333 64.4433" stroke="#7CE657" stroke-width="4.5" stroke-linecap="round"/>
</svg>
