<svg width="25" height="25" viewBox="0 0 25 25" fill="none" xmlns="http://www.w3.org/2000/svg">
<path d="M2.13574 12.598C2.13574 8.82702 2.13574 6.94102 3.30774 5.77002C4.47874 4.59802 6.36474 4.59802 10.1357 4.59802H14.1357C17.9067 4.59802 19.7927 4.59802 20.9637 5.77002C22.1357 6.94102 22.1357 8.82702 22.1357 12.598V14.598C22.1357 18.369 22.1357 20.255 20.9637 21.426C19.7927 22.598 17.9067 22.598 14.1357 22.598H10.1357C6.36474 22.598 4.47874 22.598 3.30774 21.426C2.13574 20.255 2.13574 18.369 2.13574 14.598V12.598Z" stroke="#5D381D" stroke-width="1.5"/>
<path d="M7.13574 4.59802V3.09802M17.1357 4.59802V3.09802M2.63574 9.59802H21.6357" stroke="#5D381D" stroke-width="1.5" stroke-linecap="round"/>
<path d="M18.1357 17.598C18.1357 17.8632 18.0304 18.1176 17.8428 18.3051C17.6553 18.4927 17.401 18.598 17.1357 18.598C16.8705 18.598 16.6162 18.4927 16.4286 18.3051C16.2411 18.1176 16.1357 17.8632 16.1357 17.598C16.1357 17.3328 16.2411 17.0785 16.4286 16.8909C16.6162 16.7034 16.8705 16.598 17.1357 16.598C17.401 16.598 17.6553 16.7034 17.8428 16.8909C18.0304 17.0785 18.1357 17.3328 18.1357 17.598ZM18.1357 13.598C18.1357 13.8632 18.0304 14.1176 17.8428 14.3051C17.6553 14.4927 17.401 14.598 17.1357 14.598C16.8705 14.598 16.6162 14.4927 16.4286 14.3051C16.2411 14.1176 16.1357 13.8632 16.1357 13.598C16.1357 13.3328 16.2411 13.0785 16.4286 12.8909C16.6162 12.7034 16.8705 12.598 17.1357 12.598C17.401 12.598 17.6553 12.7034 17.8428 12.8909C18.0304 13.0785 18.1357 13.3328 18.1357 13.598ZM13.1357 17.598C13.1357 17.8632 13.0304 18.1176 12.8428 18.3051C12.6553 18.4927 12.401 18.598 12.1357 18.598C11.8705 18.598 11.6162 18.4927 11.4286 18.3051C11.2411 18.1176 11.1357 17.8632 11.1357 17.598C11.1357 17.3328 11.2411 17.0785 11.4286 16.8909C11.6162 16.7034 11.8705 16.598 12.1357 16.598C12.401 16.598 12.6553 16.7034 12.8428 16.8909C13.0304 17.0785 13.1357 17.3328 13.1357 17.598ZM13.1357 13.598C13.1357 13.8632 13.0304 14.1176 12.8428 14.3051C12.6553 14.4927 12.401 14.598 12.1357 14.598C11.8705 14.598 11.6162 14.4927 11.4286 14.3051C11.2411 14.1176 11.1357 13.8632 11.1357 13.598C11.1357 13.3328 11.2411 13.0785 11.4286 12.8909C11.6162 12.7034 11.8705 12.598 12.1357 12.598C12.401 12.598 12.6553 12.7034 12.8428 12.8909C13.0304 13.0785 13.1357 13.3328 13.1357 13.598ZM8.13574 17.598C8.13574 17.8632 8.03039 18.1176 7.84285 18.3051C7.65531 18.4927 7.40096 18.598 7.13574 18.598C6.87053 18.598 6.61617 18.4927 6.42864 18.3051C6.2411 18.1176 6.13574 17.8632 6.13574 17.598C6.13574 17.3328 6.2411 17.0785 6.42864 16.8909C6.61617 16.7034 6.87053 16.598 7.13574 16.598C7.40096 16.598 7.65531 16.7034 7.84285 16.8909C8.03039 17.0785 8.13574 17.3328 8.13574 17.598ZM8.13574 13.598C8.13574 13.8632 8.03039 14.1176 7.84285 14.3051C7.65531 14.4927 7.40096 14.598 7.13574 14.598C6.87053 14.598 6.61617 14.4927 6.42864 14.3051C6.2411 14.1176 6.13574 13.8632 6.13574 13.598C6.13574 13.3328 6.2411 13.0785 6.42864 12.8909C6.61617 12.7034 6.87053 12.598 7.13574 12.598C7.40096 12.598 7.65531 12.7034 7.84285 12.8909C8.03039 13.0785 8.13574 13.3328 8.13574 13.598Z" fill="#5D381D"/>
</svg>
