<svg width="25" height="25" viewBox="0 0 25 25" fill="none" xmlns="http://www.w3.org/2000/svg">
<path fill-rule="evenodd" clip-rule="evenodd" d="M9.18007 6.84827C8.81893 6.84827 8.46133 6.9194 8.12769 7.0576C7.79404 7.1958 7.49089 7.39836 7.23552 7.65372C6.98016 7.90908 6.7776 8.21224 6.6394 8.54589C6.5012 8.87953 6.43007 9.23713 6.43007 9.59827C6.43007 9.9594 6.5012 10.317 6.6394 10.6506C6.7776 10.9843 6.98016 11.2874 7.23552 11.5428C7.49089 11.7982 7.79404 12.0007 8.12769 12.1389C8.46133 12.2771 8.81893 12.3483 9.18007 12.3483C9.90941 12.3483 10.6089 12.0585 11.1246 11.5428C11.6403 11.0271 11.9301 10.3276 11.9301 9.59827C11.9301 8.86892 11.6403 8.16945 11.1246 7.65372C10.6089 7.138 9.90941 6.84827 9.18007 6.84827ZM7.93007 9.59827C7.93007 9.26675 8.06176 8.9488 8.29619 8.71438C8.53061 8.47996 8.84855 8.34827 9.18007 8.34827C9.51159 8.34827 9.82953 8.47996 10.064 8.71438C10.2984 8.9488 10.4301 9.26675 10.4301 9.59827C10.4301 9.92979 10.2984 10.2477 10.064 10.4822C9.82953 10.7166 9.51159 10.8483 9.18007 10.8483C8.84855 10.8483 8.53061 10.7166 8.29619 10.4822C8.06176 10.2477 7.93007 9.92979 7.93007 9.59827ZM9.18007 12.8483C7.98407 12.8483 6.86507 13.0883 6.01607 13.5133C5.21307 13.9153 4.43007 14.6093 4.43007 15.5983V15.6613C4.42807 16.1713 4.42607 17.0313 5.24007 17.6203C5.61807 17.8933 6.11707 18.0683 6.73507 18.1793C7.35807 18.2913 8.15707 18.3483 9.18007 18.3483C10.2031 18.3483 11.0021 18.2913 11.6251 18.1793C12.2431 18.0683 12.7421 17.8933 13.1201 17.6193C13.9341 17.0303 13.9321 16.1713 13.9301 15.6603V15.5983C13.9301 14.6083 13.1471 13.9153 12.3441 13.5133C11.4951 13.0893 10.3761 12.8483 9.18007 12.8483ZM5.93007 15.5983C5.93007 15.4833 6.04307 15.1773 6.68707 14.8553C7.28707 14.5553 8.16707 14.3483 9.18007 14.3483C10.1931 14.3483 11.0741 14.5553 11.6731 14.8553C12.3171 15.1773 12.4301 15.4833 12.4301 15.5983C12.4301 16.2023 12.3911 16.2953 12.2401 16.4053C12.1181 16.4933 11.8671 16.6113 11.3601 16.7033C10.8581 16.7933 10.1571 16.8483 9.18007 16.8483C8.20307 16.8483 7.50207 16.7933 7.00007 16.7033C6.49307 16.6113 6.24207 16.4933 6.12007 16.4053C5.96807 16.2953 5.93007 16.2023 5.93007 15.5983Z" fill="#5D381D"/>
<path d="M19.1801 13.3483C19.379 13.3483 19.5697 13.2692 19.7104 13.1286C19.851 12.9879 19.9301 12.7972 19.9301 12.5983C19.9301 12.3994 19.851 12.2086 19.7104 12.0679C19.5697 11.9273 19.379 11.8483 19.1801 11.8483H15.1801C14.9811 11.8483 14.7904 11.9273 14.6497 12.0679C14.5091 12.2086 14.4301 12.3994 14.4301 12.5983C14.4301 12.7972 14.5091 12.9879 14.6497 13.1286C14.7904 13.2692 14.9811 13.3483 15.1801 13.3483H19.1801ZM19.9301 9.59827C19.9301 9.79718 19.851 9.98794 19.7104 10.1286C19.5697 10.2692 19.379 10.3483 19.1801 10.3483H14.1801C13.9811 10.3483 13.7904 10.2692 13.6497 10.1286C13.5091 9.98794 13.4301 9.79718 13.4301 9.59827C13.4301 9.39935 13.5091 9.20859 13.6497 9.06794C13.7904 8.92728 13.9811 8.84827 14.1801 8.84827H19.1801C19.379 8.84827 19.5697 8.92728 19.7104 9.06794C19.851 9.20859 19.9301 9.39935 19.9301 9.59827ZM19.1801 16.3483C19.379 16.3483 19.5697 16.2692 19.7104 16.1286C19.851 15.9879 19.9301 15.7972 19.9301 15.5983C19.9301 15.3994 19.851 15.2086 19.7104 15.0679C19.5697 14.9273 19.379 14.8483 19.1801 14.8483H16.1801C15.9811 14.8483 15.7904 14.9273 15.6497 15.0679C15.5091 15.2086 15.4301 15.3994 15.4301 15.5983C15.4301 15.7972 15.5091 15.9879 15.6497 16.1286C15.7904 16.2692 15.9811 16.3483 16.1801 16.3483H19.1801Z" fill="#5D381D"/>
<path fill-rule="evenodd" clip-rule="evenodd" d="M10.124 3.84827H14.236C16.074 3.84827 17.53 3.84827 18.669 4.00127C19.841 4.15927 20.79 4.49127 21.539 5.23927C22.287 5.98827 22.619 6.93727 22.777 8.10927C22.93 9.24927 22.93 10.7043 22.93 12.5423V12.6543C22.93 14.4923 22.93 15.9483 22.777 17.0873C22.619 18.2593 22.287 19.2083 21.539 19.9573C20.79 20.7053 19.841 21.0373 18.669 21.1953C17.529 21.3483 16.074 21.3483 14.236 21.3483H10.125C8.28703 21.3483 6.83103 21.3483 5.69203 21.1953C4.52003 21.0373 3.57103 20.7053 2.82203 19.9573C2.07403 19.2083 1.74203 18.2593 1.58403 17.0873C1.43103 15.9473 1.43103 14.4923 1.43103 12.6543V12.5423C1.43103 10.7043 1.43103 9.24827 1.58403 8.10927C1.74203 6.93727 2.07403 5.98827 2.82203 5.23927C3.57103 4.49127 4.52003 4.15927 5.69203 4.00127C6.83203 3.84827 8.28603 3.84827 10.124 3.84827ZM5.89003 5.48827C4.88403 5.62327 4.30403 5.87727 3.88003 6.30027C3.45803 6.72327 3.20403 7.30327 3.06903 8.30927C2.93103 9.33727 2.92903 10.6913 2.92903 12.5983C2.92903 14.5053 2.93103 15.8603 3.06903 16.8883C3.20403 17.8933 3.45803 18.4733 3.88103 18.8963C4.30403 19.3193 4.88403 19.5733 5.89003 19.7083C6.91803 19.8463 8.27203 19.8483 10.179 19.8483H14.179C16.086 19.8483 17.441 19.8463 18.469 19.7083C19.474 19.5733 20.054 19.3193 20.477 18.8963C20.9 18.4733 21.154 17.8933 21.289 16.8873C21.427 15.8593 21.429 14.5053 21.429 12.5983C21.429 10.6913 21.427 9.33727 21.289 8.30827C21.154 7.30327 20.9 6.72327 20.477 6.30027C20.054 5.87727 19.474 5.62327 18.468 5.48827C17.441 5.35027 16.086 5.34827 14.179 5.34827H10.179C8.27203 5.34827 6.91903 5.35027 5.89003 5.48827Z" fill="#5D381D"/>
</svg>
