<svg width="25" height="24" viewBox="0 0 25 24" fill="none" xmlns="http://www.w3.org/2000/svg">
<path fill-rule="evenodd" clip-rule="evenodd" d="M10.6957 3.25H14.8077C16.6457 3.25 18.1017 3.25 19.2407 3.403C20.4127 3.561 21.3617 3.893 22.1107 4.641C22.8587 5.39 23.1907 6.339 23.3487 7.511C23.5017 8.651 23.5017 10.106 23.5017 11.944V12.056C23.5017 13.894 23.5017 15.35 23.3487 16.489C23.1907 17.661 22.8587 18.61 22.1107 19.359C21.3617 20.107 20.4127 20.439 19.2407 20.597C18.1007 20.75 16.6457 20.75 14.8077 20.75H10.6957C8.85771 20.75 7.40171 20.75 6.26271 20.597C5.09071 20.439 4.14171 20.107 3.39271 19.359C2.64471 18.61 2.31271 17.661 2.15471 16.489C2.00171 15.349 2.00171 13.894 2.00171 12.056V11.944C2.00171 10.106 2.00171 8.65 2.15471 7.511C2.31271 6.339 2.64471 5.39 3.39271 4.641C4.14171 3.893 5.09071 3.561 6.26271 3.403C7.40271 3.25 8.85771 3.25 10.6957 3.25ZM6.46171 4.89C5.45571 5.025 4.87571 5.279 4.45171 5.702C4.02971 6.125 3.77571 6.705 3.64071 7.711C3.50271 8.739 3.50071 10.093 3.50071 12C3.50071 13.907 3.50271 15.262 3.64071 16.29C3.77571 17.295 4.02971 17.875 4.45271 18.298C4.87571 18.721 5.45571 18.975 6.46171 19.11C7.48971 19.248 8.84371 19.25 10.7507 19.25H14.7507C16.6577 19.25 18.0127 19.248 19.0407 19.11C20.0457 18.975 20.6257 18.721 21.0487 18.298C21.4717 17.875 21.7257 17.295 21.8607 16.289C21.9987 15.261 22.0007 13.907 22.0007 12C22.0007 10.093 21.9987 8.739 21.8607 7.71C21.7257 6.705 21.4717 6.125 21.0487 5.702C20.6257 5.279 20.0457 5.025 19.0397 4.89C18.0127 4.752 16.6577 4.75 14.7507 4.75H10.7507C8.84371 4.75 7.49071 4.752 6.46171 4.89ZM6.17371 7.52C6.30105 7.36729 6.48381 7.27139 6.68183 7.25338C6.87986 7.23538 7.07692 7.29675 7.22971 7.424L9.39171 9.223C10.3247 10 10.9717 10.538 11.5197 10.89C12.0487 11.23 12.4077 11.345 12.7527 11.345C13.0977 11.345 13.4567 11.231 13.9857 10.89C14.5327 10.538 15.1807 10 16.1137 9.223L18.2727 7.423C18.3484 7.35997 18.4358 7.31246 18.5299 7.2832C18.6239 7.25393 18.7228 7.24348 18.8209 7.25244C18.9191 7.2614 19.0144 7.2896 19.1016 7.33542C19.1888 7.38124 19.2662 7.44379 19.3292 7.5195C19.3922 7.59521 19.4397 7.68259 19.469 7.77665C19.4983 7.87072 19.5087 7.96963 19.4998 8.06774C19.4908 8.16584 19.4626 8.26122 19.4168 8.34843C19.371 8.43564 19.3084 8.51297 19.2327 8.576L17.0367 10.406C16.1497 11.146 15.4317 11.744 14.7967 12.152C14.1367 12.577 13.4937 12.845 12.7527 12.845C12.0117 12.845 11.3687 12.576 10.7077 12.152C10.0737 11.744 9.35571 11.145 8.46871 10.407L6.27171 8.577C6.19595 8.51394 6.13336 8.43656 6.08753 8.34929C6.04169 8.26202 6.01351 8.16657 6.0046 8.0684C5.99568 7.97023 6.0062 7.87127 6.03556 7.77717C6.06493 7.68307 6.11255 7.59568 6.17571 7.52" fill="#5D381D"/>
</svg>
