<svg width="25" height="24" viewBox="0 0 25 24" fill="none" xmlns="http://www.w3.org/2000/svg">
<path d="M2.18005 16C2.18005 13.172 2.18005 11.757 3.05905 10.879C3.93705 9.99997 5.35205 9.99997 8.18005 9.99997H16.1801C19.0081 9.99997 20.4231 9.99997 21.3011 10.879C22.1801 11.757 22.1801 13.172 22.1801 16C22.1801 18.828 22.1801 20.243 21.3011 21.121C20.4231 22 19.0081 22 16.1801 22H8.18005C5.35205 22 3.93705 22 3.05905 21.121C2.18005 20.243 2.18005 18.828 2.18005 16Z" stroke="#5D381D" stroke-width="1.5"/>
<path d="M6.18005 9.99997V7.99997C6.18005 6.40867 6.81219 4.88255 7.93741 3.75733C9.06263 2.63211 10.5888 1.99997 12.1801 1.99997C13.7714 1.99997 15.2975 2.63211 16.4227 3.75733C17.5479 4.88255 18.1801 6.40867 18.1801 7.99997V9.99997" stroke="#5D381D" stroke-width="1.5" stroke-linecap="round"/>
<path d="M8.18005 16H8.18905M12.1711 16H12.1801M16.1711 16H16.1801" stroke="#5D381D" stroke-width="2" stroke-linecap="round" stroke-linejoin="round"/>
</svg>
