<svg width="190" height="46" viewBox="0 0 190 46" fill="none" xmlns="http://www.w3.org/2000/svg">
<path d="M2.14038 33.6447C2.62866 33.6447 3.11304 33.6427 3.59351 33.6388C4.07788 33.6349 4.52124 33.631 4.92358 33.6271C5.32593 33.6193 5.66968 33.6095 5.95483 33.5978C6.23999 33.5861 6.43335 33.5704 6.53491 33.5509L6.2478 34.3302C6.1189 34.295 5.96851 34.2638 5.79663 34.2365C5.64819 34.213 5.46655 34.1915 5.25171 34.172C5.04077 34.1486 4.79663 34.1368 4.51929 34.1368C4.42554 34.1368 4.31226 34.1407 4.17944 34.1486C4.05054 34.1525 3.92554 34.1583 3.80444 34.1661C3.66382 34.174 3.52124 34.1818 3.37671 34.1896V37.3888C3.77905 37.3849 4.14233 37.3732 4.46655 37.3536C4.79077 37.3341 5.06616 37.3146 5.29272 37.295C5.55835 37.2716 5.79272 37.2443 5.99585 37.213L5.81421 38.0626C5.54468 38.0275 5.26929 37.9943 4.98804 37.963C4.74585 37.9357 4.48218 37.9122 4.19702 37.8927C3.91187 37.8693 3.63843 37.8575 3.37671 37.8575V41.5314C3.83765 41.5314 4.26147 41.5118 4.64819 41.4728C5.03491 41.4337 5.3728 41.3888 5.66187 41.338C5.9978 41.2833 6.30444 41.2189 6.58179 41.1447L6.41187 42.0939C6.36499 42.09 6.29468 42.0861 6.20093 42.0822C6.10718 42.0782 6.00171 42.0743 5.88452 42.0704C5.77124 42.0665 5.65015 42.0626 5.52124 42.0587C5.39624 42.0587 5.2771 42.0568 5.16382 42.0529C5.05054 42.0529 4.94897 42.0509 4.85913 42.047C4.77319 42.047 4.71069 42.047 4.67163 42.047H2.14038V42.0236C2.16382 41.9415 2.1853 41.84 2.20483 41.7189C2.22827 41.5978 2.2478 41.4474 2.26343 41.2677C2.27905 41.088 2.29077 40.8751 2.29858 40.629C2.3064 40.379 2.3103 40.088 2.3103 39.756V35.9415C2.3103 35.6095 2.3064 35.3204 2.29858 35.0743C2.29077 34.8243 2.27905 34.6095 2.26343 34.4298C2.2478 34.2462 2.22827 34.0939 2.20483 33.9728C2.1853 33.8517 2.16382 33.7501 2.14038 33.6681V33.6447ZM10.7361 37.2247L10.6541 37.2365C10.6267 37.1466 10.5818 37.0509 10.5193 36.9493C10.4607 36.8478 10.3826 36.754 10.2849 36.6681C10.1912 36.5822 10.0759 36.5118 9.93921 36.4572C9.8064 36.3986 9.6521 36.3693 9.47632 36.3693C9.35522 36.3693 9.23999 36.3868 9.13062 36.422C9.02515 36.4572 8.9314 36.5099 8.84937 36.5802C8.77124 36.6466 8.70874 36.7306 8.66187 36.8322C8.61499 36.9337 8.59155 37.0529 8.59155 37.1896C8.59155 37.381 8.65015 37.5646 8.76733 37.7404C8.88843 37.9122 9.03882 38.0841 9.21851 38.256C9.39819 38.424 9.59155 38.5939 9.79858 38.7657C10.0095 38.9376 10.2048 39.1173 10.3845 39.3048C10.5642 39.4923 10.7126 39.6935 10.8298 39.9083C10.9509 40.1193 11.0115 40.3478 11.0115 40.5939C11.0115 40.7931 10.9763 40.9884 10.906 41.1798C10.8357 41.3673 10.7263 41.5353 10.5779 41.6837C10.4333 41.8322 10.2458 41.9532 10.0154 42.047C9.78882 42.1368 9.51733 42.1818 9.20093 42.1818C9.01343 42.1818 8.83765 42.1642 8.67358 42.129C8.51343 42.0939 8.36499 42.0509 8.22827 42.0001C8.09546 41.9454 7.97437 41.8868 7.86499 41.8243C7.75952 41.7579 7.66577 41.6954 7.58374 41.6368L7.64233 40.5236H7.73608C7.77515 40.7072 7.83374 40.8751 7.91187 41.0275C7.98999 41.1798 8.08569 41.3107 8.19897 41.42C8.31616 41.5255 8.44897 41.6095 8.59741 41.672C8.74585 41.7306 8.90796 41.7599 9.08374 41.7599C9.3728 41.7599 9.60132 41.6798 9.76929 41.5197C9.94116 41.3595 10.0271 41.1505 10.0271 40.8927C10.0271 40.6857 9.96851 40.4962 9.85132 40.3243C9.73804 40.1486 9.59351 39.9806 9.41772 39.8204C9.24194 39.6603 9.05249 39.5001 8.84937 39.34C8.65015 39.1798 8.46265 39.0099 8.28687 38.8302C8.11108 38.6466 7.9646 38.4474 7.84741 38.2325C7.73413 38.0138 7.67749 37.7657 7.67749 37.4884C7.67749 37.2618 7.71851 37.0548 7.80054 36.8673C7.88647 36.6759 8.00366 36.5138 8.1521 36.381C8.30444 36.2443 8.48413 36.1388 8.69116 36.0646C8.89819 35.9904 9.12476 35.9532 9.37085 35.9532C9.69507 35.9532 9.9646 35.9884 10.1794 36.0587C10.3982 36.1251 10.5642 36.1896 10.6775 36.2521L10.7361 37.2247ZM14.4626 41.7013C14.5798 41.7013 14.6951 41.6798 14.8083 41.6368C14.9255 41.5939 15.0369 41.5353 15.1423 41.4611C15.2517 41.3868 15.3552 41.3029 15.4529 41.2091C15.5544 41.1115 15.6482 41.0099 15.7341 40.9044L15.7927 40.9337L15.4119 41.8771C15.365 41.9005 15.3064 41.9298 15.2361 41.965C15.1697 41.9962 15.0876 42.0255 14.99 42.0529C14.8962 42.0841 14.7849 42.1095 14.656 42.129C14.5271 42.1525 14.3748 42.1642 14.199 42.1642C13.6755 42.1642 13.2673 42.0236 12.9744 41.7423C12.6853 41.4572 12.5408 41.0138 12.5408 40.4122V36.504L11.5564 36.5392V36.0236C11.6775 36.0314 11.822 36.0372 11.99 36.0411C12.158 36.045 12.3416 36.047 12.5408 36.047C12.5369 35.7697 12.5291 35.5255 12.5173 35.3146C12.5095 35.0997 12.4978 34.9142 12.4822 34.7579C12.4705 34.5978 12.4548 34.463 12.4353 34.3536C12.4158 34.2443 12.3962 34.1525 12.3767 34.0782V34.0548H13.7302V34.0782C13.7068 34.1525 13.6853 34.2443 13.6658 34.3536C13.6462 34.463 13.6287 34.5958 13.613 34.7521C13.6013 34.9083 13.5896 35.0939 13.5779 35.3087C13.5701 35.5197 13.5642 35.7657 13.5603 36.047C13.8064 36.0431 14.0466 36.0392 14.281 36.0353C14.5193 36.0275 14.7341 36.0197 14.9255 36.0118C15.1208 36.0001 15.2849 35.9904 15.4177 35.9825C15.5544 35.9708 15.6443 35.9611 15.6873 35.9532L15.5818 36.5509C15.3826 36.547 15.1736 36.5411 14.9548 36.5333C14.7673 36.5255 14.5525 36.5197 14.3103 36.5157C14.0681 36.5118 13.8181 36.5079 13.5603 36.504V40.5353C13.5603 40.7775 13.5857 40.9747 13.6365 41.1271C13.6912 41.2755 13.7595 41.3927 13.8416 41.4786C13.9275 41.5646 14.0232 41.6232 14.1287 41.6544C14.238 41.6857 14.3494 41.7013 14.4626 41.7013ZM16.9822 38.338C16.9822 38.006 16.9763 37.7169 16.9646 37.4708C16.9568 37.2208 16.9451 37.006 16.9294 36.8263C16.9177 36.6466 16.9001 36.4962 16.8767 36.3751C16.8572 36.254 16.8357 36.1525 16.8123 36.0704V36.047H18.1658V36.0704C18.1423 36.1525 18.1208 36.254 18.1013 36.3751C18.0818 36.4962 18.0642 36.6466 18.0486 36.8263C18.033 37.006 18.0212 37.2208 18.0134 37.4708C18.0056 37.7169 18.0017 38.006 18.0017 38.338V39.756C18.0017 40.088 18.0056 40.379 18.0134 40.629C18.0212 40.8751 18.033 41.088 18.0486 41.2677C18.0642 41.4474 18.0818 41.5978 18.1013 41.7189C18.1208 41.84 18.1423 41.9415 18.1658 42.0236V42.047H16.8123V42.0236C16.8357 41.9415 16.8572 41.84 16.8767 41.7189C16.9001 41.5978 16.9177 41.4474 16.9294 41.2677C16.9451 41.088 16.9568 40.8751 16.9646 40.629C16.9763 40.379 16.9822 40.088 16.9822 39.756V38.338ZM16.8591 34.2716C16.8591 34.1857 16.8748 34.1056 16.906 34.0314C16.9412 33.9532 16.9861 33.8868 17.0408 33.8322C17.0955 33.7736 17.1599 33.7286 17.2341 33.6974C17.3123 33.6622 17.3962 33.6447 17.4861 33.6447C17.5759 33.6447 17.658 33.6622 17.7322 33.6974C17.8103 33.7286 17.8767 33.7736 17.9314 33.8322C17.99 33.8868 18.0349 33.9532 18.0662 34.0314C18.1013 34.1056 18.1189 34.1857 18.1189 34.2716C18.1189 34.4513 18.0583 34.6017 17.9373 34.7228C17.8162 34.8439 17.6658 34.9044 17.4861 34.9044C17.3962 34.9044 17.3123 34.8888 17.2341 34.8575C17.1599 34.8224 17.0955 34.7775 17.0408 34.7228C16.9861 34.6642 16.9412 34.5978 16.906 34.5236C16.8748 34.4454 16.8591 34.3615 16.8591 34.2716ZM19.8767 35.5782C19.8767 35.2462 19.8708 34.9572 19.8591 34.7111C19.8513 34.4611 19.8396 34.2462 19.824 34.0665C19.8123 33.8868 19.7947 33.7365 19.7712 33.6154C19.7517 33.4943 19.7302 33.3927 19.7068 33.3107V33.2872H21.0603V33.3107C21.0369 33.3927 21.0154 33.4943 20.9958 33.6154C20.9763 33.7365 20.9587 33.8868 20.9431 34.0665C20.9275 34.2462 20.9158 34.4611 20.908 34.7111C20.9001 34.9572 20.8962 35.2462 20.8962 35.5782V39.756C20.8962 40.088 20.9001 40.379 20.908 40.629C20.9158 40.8751 20.9275 41.088 20.9431 41.2677C20.9587 41.4474 20.9763 41.5978 20.9958 41.7189C21.0154 41.84 21.0369 41.9415 21.0603 42.0236V42.047H19.7068V42.0236C19.7302 41.9415 19.7517 41.84 19.7712 41.7189C19.7947 41.5978 19.8123 41.4474 19.824 41.2677C19.8396 41.088 19.8513 40.8751 19.8591 40.629C19.8708 40.379 19.8767 40.088 19.8767 39.756V35.5782ZM22.2439 39.0353C22.2439 38.5939 22.3259 38.1857 22.49 37.8107C22.6541 37.4318 22.8787 37.1036 23.1638 36.8263C23.4529 36.549 23.7927 36.3322 24.1833 36.1759C24.574 36.0197 24.9939 35.9415 25.4431 35.9415C25.8845 35.9415 26.2986 36.0157 26.6853 36.1642C27.0759 36.3087 27.4158 36.5157 27.7048 36.7853C27.9939 37.0548 28.2205 37.3829 28.3845 37.7697C28.5525 38.1564 28.6365 38.59 28.6365 39.0704C28.6365 39.4728 28.5662 39.8595 28.4255 40.2306C28.2849 40.6017 28.0779 40.9298 27.8044 41.215C27.531 41.5001 27.1951 41.7286 26.7966 41.9005C26.4021 42.0685 25.947 42.1525 25.4314 42.1525C24.9939 42.1525 24.5818 42.0802 24.1951 41.9357C23.8083 41.7911 23.4705 41.5841 23.1814 41.3146C22.8923 41.045 22.6638 40.7189 22.4958 40.3361C22.3279 39.9493 22.2439 39.5157 22.2439 39.0353ZM25.5662 41.7247C25.8435 41.7247 26.0974 41.67 26.3279 41.5607C26.5623 41.4513 26.7634 41.2931 26.9314 41.0861C27.0994 40.879 27.2302 40.6271 27.324 40.3302C27.4177 40.0333 27.4646 39.6974 27.4646 39.3224C27.4646 38.9005 27.4197 38.5099 27.3298 38.1505C27.24 37.7872 27.1052 37.4747 26.9255 37.213C26.7498 36.9474 26.5271 36.7404 26.2576 36.5919C25.988 36.4435 25.6736 36.3693 25.3142 36.3693C25.0369 36.3693 24.783 36.424 24.5525 36.5333C24.322 36.6388 24.1208 36.7931 23.949 36.9962C23.781 37.1993 23.6501 37.4493 23.5564 37.7462C23.4626 38.0392 23.4158 38.3732 23.4158 38.7482C23.4158 39.17 23.4607 39.5626 23.5505 39.9259C23.6443 40.2892 23.781 40.6056 23.9607 40.8751C24.1404 41.1407 24.363 41.3497 24.6287 41.5021C24.8982 41.6505 25.2107 41.7247 25.5662 41.7247ZM36.1775 42.1525C35.7439 42.1525 35.3376 42.0841 34.9587 41.9474C34.5798 41.8107 34.2498 41.6115 33.9685 41.3497C33.6873 41.0841 33.4646 40.7579 33.3005 40.3712C33.1404 39.9806 33.0603 39.5353 33.0603 39.0353C33.0603 38.5939 33.1345 38.1857 33.283 37.8107C33.4314 37.4318 33.6365 37.1036 33.8982 36.8263C34.1599 36.549 34.4646 36.3322 34.8123 36.1759C35.1638 36.0197 35.5427 35.9415 35.949 35.9415C36.3513 35.9415 36.7244 36.0118 37.0681 36.1525C37.4119 36.2892 37.7087 36.4904 37.9587 36.756C38.2126 37.0177 38.4119 37.3439 38.5564 37.7345C38.7048 38.1212 38.7849 38.5626 38.7966 39.0587C38.3552 39.0509 37.9138 39.045 37.4724 39.0411C37.031 39.0372 36.572 39.0353 36.0955 39.0353C35.7556 39.0353 35.4236 39.0372 35.0994 39.0411C34.7791 39.045 34.49 39.0509 34.2322 39.0587C34.2556 39.465 34.3181 39.8322 34.4197 40.1603C34.5251 40.4884 34.6677 40.7697 34.8474 41.004C35.031 41.2345 35.2517 41.4122 35.5095 41.5372C35.7712 41.6622 36.0662 41.7247 36.3943 41.7247C36.6208 41.7247 36.8337 41.6993 37.033 41.6486C37.2361 41.5939 37.4197 41.5197 37.5837 41.4259C37.7478 41.3322 37.8943 41.2228 38.0232 41.0978C38.1521 40.9689 38.2615 40.8302 38.3513 40.6818L38.4216 40.7169L37.988 41.7599C37.7771 41.8693 37.5251 41.963 37.2322 42.0411C36.9392 42.1154 36.5876 42.1525 36.1775 42.1525ZM35.3982 38.5782C35.7888 38.5782 36.1794 38.5782 36.5701 38.5782C36.9646 38.5743 37.322 38.5665 37.6423 38.5548C37.6072 38.215 37.5408 37.9103 37.4431 37.6407C37.3455 37.3712 37.2205 37.1427 37.0681 36.9552C36.9158 36.7677 36.7361 36.6232 36.5291 36.5216C36.322 36.42 36.0935 36.3693 35.8435 36.3693C35.6169 36.3693 35.408 36.42 35.2166 36.5216C35.0291 36.6193 34.865 36.7618 34.7244 36.9493C34.5837 37.1368 34.4705 37.3673 34.3845 37.6407C34.2986 37.9103 34.2478 38.2189 34.2322 38.5665C34.408 38.5743 34.5935 38.5782 34.7888 38.5782C34.9841 38.5782 35.1873 38.5782 35.3982 38.5782ZM43.6541 38.2208C43.6541 37.8888 43.6482 37.5997 43.6365 37.3536C43.6287 37.1036 43.6169 36.8888 43.6013 36.7091C43.5896 36.5294 43.572 36.379 43.5486 36.2579C43.5291 36.1368 43.5076 36.0353 43.4841 35.9532V35.9298H44.8376V35.9532C44.8181 36.0118 44.8005 36.0782 44.7849 36.1525C44.7693 36.2267 44.7556 36.3107 44.7439 36.4044C44.9744 36.2716 45.2283 36.1603 45.5056 36.0704C45.7869 35.9767 46.0974 35.9298 46.4373 35.9298C46.8708 35.9298 47.2654 36.004 47.6208 36.1525C47.9802 36.297 48.2869 36.506 48.5408 36.7794C48.7986 37.0529 48.9978 37.3829 49.1384 37.7697C49.2791 38.1564 49.3494 38.59 49.3494 39.0704C49.3494 39.4728 49.2791 39.8595 49.1384 40.2306C49.0017 40.6017 48.7986 40.9298 48.5291 41.215C48.2634 41.5001 47.9353 41.7286 47.5447 41.9005C47.1541 42.0685 46.7048 42.1525 46.197 42.1525C45.8923 42.1525 45.615 42.129 45.365 42.0822C45.115 42.0353 44.8845 41.9747 44.6736 41.9005V42.756C44.6736 43.088 44.6775 43.3771 44.6853 43.6232C44.6931 43.8732 44.7048 44.088 44.7205 44.2677C44.7361 44.4474 44.7537 44.5978 44.7732 44.7189C44.7927 44.84 44.8142 44.9415 44.8376 45.0236V45.047H43.4841V45.0236C43.5076 44.9415 43.5291 44.84 43.5486 44.7189C43.572 44.5978 43.5896 44.4474 43.6013 44.2677C43.6169 44.088 43.6287 43.8732 43.6365 43.6232C43.6482 43.3771 43.6541 43.088 43.6541 42.756V38.2208ZM46.2322 36.3693C46.0994 36.3693 45.9626 36.3868 45.822 36.422C45.6853 36.4532 45.5486 36.5001 45.4119 36.5626C45.2791 36.6212 45.1501 36.6974 45.0251 36.7911C44.9041 36.881 44.7947 36.9845 44.697 37.1017C44.6892 37.2501 44.6833 37.4181 44.6794 37.6056C44.6755 37.7931 44.6736 37.9982 44.6736 38.2208V41.2911C44.7517 41.3497 44.8396 41.4044 44.9373 41.4552C45.0349 41.506 45.1443 41.5529 45.2654 41.5958C45.3904 41.6349 45.5291 41.6661 45.6814 41.6896C45.8376 41.713 46.0095 41.7247 46.197 41.7247C46.5017 41.7247 46.7771 41.67 47.0232 41.5607C47.2693 41.4513 47.4763 41.2931 47.6443 41.0861C47.8162 40.879 47.947 40.6271 48.0369 40.3302C48.1306 40.0333 48.1775 39.6974 48.1775 39.3224C48.1775 38.9005 48.1423 38.5099 48.072 38.1505C48.0017 37.7872 47.8884 37.4747 47.7322 37.213C47.5798 36.9474 47.3806 36.7404 47.1345 36.5919C46.8884 36.4435 46.5876 36.3693 46.2322 36.3693ZM50.6619 38.338C50.6619 38.006 50.656 37.7169 50.6443 37.4708C50.6365 37.2208 50.6248 37.006 50.6091 36.8263C50.5974 36.6466 50.5798 36.4962 50.5564 36.3751C50.5369 36.254 50.5154 36.1525 50.4919 36.0704V36.047H51.8455V36.0704C51.8142 36.1603 51.7869 36.2697 51.7634 36.3986C51.7439 36.5275 51.7283 36.6935 51.7166 36.8966C51.8611 36.7755 52.0115 36.6564 52.1677 36.5392C52.324 36.422 52.4841 36.3185 52.6482 36.2286C52.8123 36.1388 52.9783 36.0665 53.1462 36.0118C53.3181 35.9572 53.49 35.9298 53.6619 35.9298C53.7673 35.9298 53.8591 35.9357 53.9373 35.9474C54.0154 35.9552 54.0857 35.9689 54.1482 35.9884C54.2107 36.004 54.2673 36.0236 54.3181 36.047C54.3689 36.0665 54.4177 36.0861 54.4646 36.1056L54.1775 37.2247L54.0779 37.2013C54.031 37.0294 53.9431 36.8927 53.8142 36.7911C53.6853 36.6857 53.5095 36.6329 53.2869 36.6329C53.1658 36.6329 53.0388 36.6544 52.906 36.6974C52.7732 36.7404 52.6384 36.8009 52.5017 36.879C52.365 36.9532 52.2283 37.0411 52.0916 37.1427C51.9548 37.2404 51.822 37.3439 51.6931 37.4532C51.6853 37.5665 51.6814 37.6896 51.6814 37.8224C51.6814 37.9552 51.6814 38.0958 51.6814 38.2443V39.756C51.6814 40.088 51.6853 40.379 51.6931 40.629C51.7009 40.8751 51.7126 41.088 51.7283 41.2677C51.7439 41.4474 51.7615 41.5978 51.781 41.7189C51.8005 41.84 51.822 41.9415 51.8455 42.0236V42.047H50.4919V42.0236C50.5154 41.9415 50.5369 41.84 50.5564 41.7189C50.5798 41.5978 50.5974 41.4474 50.6091 41.2677C50.6248 41.088 50.6365 40.8751 50.6443 40.629C50.656 40.379 50.6619 40.088 50.6619 39.756V38.338ZM54.658 40.3185C54.658 40.0099 54.7205 39.7423 54.8455 39.5157C54.9744 39.2892 55.1443 39.0958 55.3552 38.9357C55.5662 38.7755 55.8064 38.6466 56.0759 38.549C56.3455 38.4474 56.6248 38.3693 56.9138 38.3146C57.2029 38.256 57.488 38.2169 57.7693 38.1974C58.0505 38.174 58.3083 38.1603 58.5427 38.1564V37.8575C58.5427 37.5997 58.5095 37.3771 58.4431 37.1896C58.3767 37.0021 58.283 36.8478 58.1619 36.7267C58.0408 36.6017 57.8943 36.5099 57.7224 36.4513C57.5544 36.3888 57.3689 36.3575 57.1658 36.3575C57.0251 36.3575 56.8865 36.3693 56.7498 36.3927C56.613 36.4161 56.4705 36.4552 56.322 36.5099C56.1775 36.5646 56.0232 36.6388 55.8591 36.7325C55.699 36.8263 55.5251 36.9454 55.3376 37.09L55.2791 37.0548L55.6775 36.2286C55.8064 36.17 55.9333 36.1232 56.0583 36.088C56.1833 36.049 56.3103 36.0177 56.4392 35.9943C56.5681 35.9708 56.699 35.9552 56.8318 35.9474C56.9685 35.9357 57.1111 35.9298 57.2595 35.9298C57.6697 35.9298 58.0193 35.9806 58.3083 36.0822C58.6013 36.1798 58.8396 36.3165 59.0232 36.4923C59.2107 36.6642 59.3474 36.8673 59.4333 37.1017C59.5193 37.3322 59.5623 37.5802 59.5623 37.8458V39.756C59.5623 40.088 59.5662 40.379 59.574 40.629C59.5857 40.8751 59.5974 41.088 59.6091 41.2677C59.6248 41.4474 59.6423 41.5978 59.6619 41.7189C59.6853 41.84 59.7087 41.9415 59.7322 42.0236V42.047H58.4373V42.0236C58.4568 41.9611 58.4705 41.8907 58.4783 41.8126C58.49 41.7345 58.4998 41.6407 58.5076 41.5314C58.4255 41.6017 58.3279 41.674 58.2146 41.7482C58.1052 41.8224 57.9783 41.8907 57.8337 41.9532C57.6931 42.0118 57.5349 42.0587 57.3591 42.0939C57.1873 42.1329 56.9978 42.1525 56.7908 42.1525C56.1111 42.1525 55.5857 41.9943 55.2146 41.6779C54.8435 41.3575 54.658 40.9044 54.658 40.3185ZM58.5427 38.6134C58.1873 38.6173 57.8455 38.6388 57.5173 38.6779C57.1892 38.713 56.8982 38.7892 56.6443 38.9064C56.3943 39.0236 56.1931 39.1915 56.0408 39.4103C55.8923 39.6251 55.8181 39.9122 55.8181 40.2716C55.8181 40.7325 55.9333 41.0841 56.1638 41.3263C56.3943 41.5685 56.7126 41.6896 57.1189 41.6896C57.3064 41.6896 57.4763 41.6642 57.6287 41.6134C57.7849 41.5587 57.9216 41.4923 58.0388 41.4142C58.1599 41.3322 58.2615 41.2443 58.3435 41.1505C58.4255 41.0529 58.488 40.9591 58.531 40.8693C58.5388 40.7208 58.5427 40.5568 58.5427 40.3771C58.5427 40.1935 58.5427 39.9865 58.5427 39.756V38.6134ZM63.4587 41.7013C63.5759 41.7013 63.6912 41.6798 63.8044 41.6368C63.9216 41.5939 64.033 41.5353 64.1384 41.4611C64.2478 41.3868 64.3513 41.3029 64.449 41.2091C64.5505 41.1115 64.6443 41.0099 64.7302 40.9044L64.7888 40.9337L64.408 41.8771C64.3611 41.9005 64.3025 41.9298 64.2322 41.965C64.1658 41.9962 64.0837 42.0255 63.9861 42.0529C63.8923 42.0841 63.781 42.1095 63.6521 42.129C63.5232 42.1525 63.3708 42.1642 63.1951 42.1642C62.6716 42.1642 62.2634 42.0236 61.9705 41.7423C61.6814 41.4572 61.5369 41.0138 61.5369 40.4122V36.504L60.5525 36.5392V36.0236C60.6736 36.0314 60.8181 36.0372 60.9861 36.0411C61.1541 36.045 61.3376 36.047 61.5369 36.047C61.533 35.7697 61.5251 35.5255 61.5134 35.3146C61.5056 35.0997 61.4939 34.9142 61.4783 34.7579C61.4666 34.5978 61.4509 34.463 61.4314 34.3536C61.4119 34.2443 61.3923 34.1525 61.3728 34.0782V34.0548H62.7263V34.0782C62.7029 34.1525 62.6814 34.2443 62.6619 34.3536C62.6423 34.463 62.6248 34.5958 62.6091 34.7521C62.5974 34.9083 62.5857 35.0939 62.574 35.3087C62.5662 35.5197 62.5603 35.7657 62.5564 36.047C62.8025 36.0431 63.0427 36.0392 63.2771 36.0353C63.5154 36.0275 63.7302 36.0197 63.9216 36.0118C64.1169 36.0001 64.281 35.9904 64.4138 35.9825C64.5505 35.9708 64.6404 35.9611 64.6833 35.9532L64.5779 36.5509C64.3787 36.547 64.1697 36.5411 63.9509 36.5333C63.7634 36.5255 63.5486 36.5197 63.3064 36.5157C63.0642 36.5118 62.8142 36.5079 62.5564 36.504V40.5353C62.5564 40.7775 62.5818 40.9747 62.6326 41.1271C62.6873 41.2755 62.7556 41.3927 62.8376 41.4786C62.9236 41.5646 63.0193 41.6232 63.1248 41.6544C63.2341 41.6857 63.3455 41.7013 63.4587 41.7013ZM65.9783 38.338C65.9783 38.006 65.9724 37.7169 65.9607 37.4708C65.9529 37.2208 65.9412 37.006 65.9255 36.8263C65.9138 36.6466 65.8962 36.4962 65.8728 36.3751C65.8533 36.254 65.8318 36.1525 65.8083 36.0704V36.047H67.1619V36.0704C67.1384 36.1525 67.1169 36.254 67.0974 36.3751C67.0779 36.4962 67.0603 36.6466 67.0447 36.8263C67.0291 37.006 67.0173 37.2208 67.0095 37.4708C67.0017 37.7169 66.9978 38.006 66.9978 38.338V39.756C66.9978 40.088 67.0017 40.379 67.0095 40.629C67.0173 40.8751 67.0291 41.088 67.0447 41.2677C67.0603 41.4474 67.0779 41.5978 67.0974 41.7189C67.1169 41.84 67.1384 41.9415 67.1619 42.0236V42.047H65.8083V42.0236C65.8318 41.9415 65.8533 41.84 65.8728 41.7189C65.8962 41.5978 65.9138 41.4474 65.9255 41.2677C65.9412 41.088 65.9529 40.8751 65.9607 40.629C65.9724 40.379 65.9783 40.088 65.9783 39.756V38.338ZM65.8552 34.2716C65.8552 34.1857 65.8708 34.1056 65.9021 34.0314C65.9373 33.9532 65.9822 33.8868 66.0369 33.8322C66.0916 33.7736 66.156 33.7286 66.2302 33.6974C66.3083 33.6622 66.3923 33.6447 66.4822 33.6447C66.572 33.6447 66.6541 33.6622 66.7283 33.6974C66.8064 33.7286 66.8728 33.7736 66.9275 33.8322C66.9861 33.8868 67.031 33.9532 67.0623 34.0314C67.0974 34.1056 67.115 34.1857 67.115 34.2716C67.115 34.4513 67.0544 34.6017 66.9333 34.7228C66.8123 34.8439 66.6619 34.9044 66.4822 34.9044C66.3923 34.9044 66.3083 34.8888 66.2302 34.8575C66.156 34.8224 66.0916 34.7775 66.0369 34.7228C65.9822 34.6642 65.9373 34.5978 65.9021 34.5236C65.8708 34.4454 65.8552 34.3615 65.8552 34.2716ZM73.7068 40.799L73.2732 41.8419C73.1677 41.8888 73.0466 41.9318 72.9099 41.9708C72.7732 42.0099 72.6306 42.0431 72.4822 42.0704C72.3376 42.0978 72.1912 42.1173 72.0427 42.129C71.8943 42.1447 71.7537 42.1525 71.6208 42.1525C71.1482 42.1525 70.7107 42.0841 70.3083 41.9474C69.9099 41.8068 69.5642 41.6036 69.2712 41.338C68.9822 41.0724 68.7556 40.7462 68.5916 40.3595C68.4275 39.9728 68.3455 39.5314 68.3455 39.0353C68.3455 38.5939 68.4294 38.1857 68.5974 37.8107C68.7693 37.4318 69.0056 37.1036 69.3064 36.8263C69.6111 36.549 69.9685 36.3322 70.3787 36.1759C70.7888 36.0197 71.2341 35.9415 71.7146 35.9415C71.9333 35.9415 72.1677 35.9611 72.4177 36.0001C72.6677 36.0353 72.8904 36.0822 73.0857 36.1407L73.5017 37.1368L73.4314 37.1779C73.3337 37.0568 73.2166 36.9474 73.0798 36.8497C72.947 36.7482 72.7986 36.6622 72.6345 36.5919C72.4744 36.5216 72.3044 36.4669 72.1248 36.4279C71.9451 36.3888 71.7615 36.3693 71.574 36.3693C71.2693 36.3693 70.9919 36.424 70.7419 36.5333C70.4919 36.6388 70.2771 36.7931 70.0974 36.9962C69.9177 37.1993 69.7771 37.4493 69.6755 37.7462C69.5779 38.0392 69.5291 38.3732 69.5291 38.7482C69.5291 39.17 69.5759 39.5626 69.6697 39.9259C69.7673 40.2892 69.9099 40.6056 70.0974 40.8751C70.2888 41.1407 70.5271 41.3497 70.8123 41.5021C71.1013 41.6505 71.4392 41.7247 71.8259 41.7247C72.0056 41.7247 72.1833 41.7032 72.3591 41.6603C72.5388 41.6134 72.7068 41.549 72.863 41.4669C73.0232 41.381 73.1697 41.2794 73.3025 41.1622C73.4353 41.045 73.5466 40.9122 73.6365 40.7638L73.7068 40.799ZM74.9314 38.338C74.9314 38.006 74.9255 37.7169 74.9138 37.4708C74.906 37.2208 74.8943 37.006 74.8787 36.8263C74.8669 36.6466 74.8494 36.4962 74.8259 36.3751C74.8064 36.254 74.7849 36.1525 74.7615 36.0704V36.047H76.115V36.0704C76.0916 36.1525 76.0701 36.254 76.0505 36.3751C76.031 36.4962 76.0134 36.6466 75.9978 36.8263C75.9822 37.006 75.9705 37.2208 75.9626 37.4708C75.9548 37.7169 75.9509 38.006 75.9509 38.338V39.756C75.9509 40.088 75.9548 40.379 75.9626 40.629C75.9705 40.8751 75.9822 41.088 75.9978 41.2677C76.0134 41.4474 76.031 41.5978 76.0505 41.7189C76.0701 41.84 76.0916 41.9415 76.115 42.0236V42.047H74.7615V42.0236C74.7849 41.9415 74.8064 41.84 74.8259 41.7189C74.8494 41.5978 74.8669 41.4474 74.8787 41.2677C74.8943 41.088 74.906 40.8751 74.9138 40.629C74.9255 40.379 74.9314 40.088 74.9314 39.756V38.338ZM74.8083 34.2716C74.8083 34.1857 74.824 34.1056 74.8552 34.0314C74.8904 33.9532 74.9353 33.8868 74.99 33.8322C75.0447 33.7736 75.1091 33.7286 75.1833 33.6974C75.2615 33.6622 75.3455 33.6447 75.4353 33.6447C75.5251 33.6447 75.6072 33.6622 75.6814 33.6974C75.7595 33.7286 75.8259 33.7736 75.8806 33.8322C75.9392 33.8868 75.9841 33.9532 76.0154 34.0314C76.0505 34.1056 76.0681 34.1857 76.0681 34.2716C76.0681 34.4513 76.0076 34.6017 75.8865 34.7228C75.7654 34.8439 75.615 34.9044 75.4353 34.9044C75.3455 34.9044 75.2615 34.8888 75.1833 34.8575C75.1091 34.8224 75.0447 34.7775 74.99 34.7228C74.9353 34.6642 74.8904 34.5978 74.8552 34.5236C74.824 34.4454 74.8083 34.3615 74.8083 34.2716ZM80.4626 35.9415C80.6228 35.9415 80.783 35.9552 80.9431 35.9825C81.1033 36.0099 81.2595 36.049 81.4119 36.0997C81.5642 36.1505 81.7087 36.213 81.8455 36.2872C81.9822 36.3615 82.1052 36.4454 82.2146 36.5392V35.5782C82.2146 35.2462 82.2107 34.9572 82.2029 34.7111C82.1951 34.4611 82.1833 34.2462 82.1677 34.0665C82.1521 33.8868 82.1345 33.7365 82.115 33.6154C82.0955 33.4943 82.074 33.3927 82.0505 33.3107V33.2872H83.4041V33.3107C83.3806 33.3927 83.3572 33.4943 83.3337 33.6154C83.3142 33.7365 83.2966 33.8868 83.281 34.0665C83.2693 34.2462 83.2576 34.4611 83.2458 34.7111C83.238 34.9572 83.2341 35.2462 83.2341 35.5782V39.756C83.2341 40.088 83.238 40.379 83.2458 40.629C83.2576 40.8751 83.2693 41.088 83.281 41.2677C83.2966 41.4474 83.3142 41.5978 83.3337 41.7189C83.3572 41.84 83.3806 41.9415 83.4041 42.0236V42.047H82.1091V42.0236C82.1208 41.9923 82.1306 41.9474 82.1384 41.8888C82.1462 41.8263 82.156 41.7501 82.1677 41.6603C81.9685 41.7853 81.7185 41.8986 81.4177 42.0001C81.1169 42.1017 80.7673 42.1525 80.3689 42.1525C79.9041 42.1525 79.4822 42.0802 79.1033 41.9357C78.7244 41.7911 78.4001 41.5841 78.1306 41.3146C77.865 41.045 77.6599 40.7189 77.5154 40.3361C77.3708 39.9493 77.2986 39.5157 77.2986 39.0353C77.2986 38.5939 77.3767 38.1857 77.533 37.8107C77.6892 37.4318 77.908 37.1036 78.1892 36.8263C78.4705 36.549 78.8044 36.3322 79.1912 36.1759C79.5779 36.0197 80.0017 35.9415 80.4626 35.9415ZM82.2146 37.5704C82.0583 37.1603 81.8337 36.8575 81.5408 36.6622C81.2517 36.4669 80.9255 36.3693 80.5623 36.3693C80.2576 36.3693 79.9763 36.424 79.7185 36.5333C79.4607 36.6388 79.24 36.7931 79.0564 36.9962C78.8728 37.1993 78.7283 37.4493 78.6228 37.7462C78.5212 38.0392 78.4705 38.3732 78.4705 38.7482C78.4705 39.17 78.5173 39.5626 78.6111 39.9259C78.7048 40.2892 78.8416 40.6056 79.0212 40.8751C79.2048 41.1407 79.4314 41.3497 79.7009 41.5021C79.9705 41.6505 80.281 41.7247 80.6326 41.7247C80.8162 41.7247 80.988 41.7032 81.1482 41.6603C81.3083 41.6173 81.4548 41.5626 81.5876 41.4962C81.7205 41.4298 81.8376 41.3575 81.9392 41.2794C82.0408 41.1974 82.1248 41.1173 82.1912 41.0392C82.199 40.8712 82.2048 40.6798 82.2087 40.465C82.2126 40.2501 82.2146 40.0138 82.2146 39.756V37.5704ZM84.5759 40.3185C84.5759 40.0099 84.6384 39.7423 84.7634 39.5157C84.8923 39.2892 85.0623 39.0958 85.2732 38.9357C85.4841 38.7755 85.7244 38.6466 85.9939 38.549C86.2634 38.4474 86.5427 38.3693 86.8318 38.3146C87.1208 38.256 87.406 38.2169 87.6873 38.1974C87.9685 38.174 88.2263 38.1603 88.4607 38.1564V37.8575C88.4607 37.5997 88.4275 37.3771 88.3611 37.1896C88.2947 37.0021 88.2009 36.8478 88.0798 36.7267C87.9587 36.6017 87.8123 36.5099 87.6404 36.4513C87.4724 36.3888 87.2869 36.3575 87.0837 36.3575C86.9431 36.3575 86.8044 36.3693 86.6677 36.3927C86.531 36.4161 86.3884 36.4552 86.24 36.5099C86.0955 36.5646 85.9412 36.6388 85.7771 36.7325C85.6169 36.8263 85.4431 36.9454 85.2556 37.09L85.197 37.0548L85.5955 36.2286C85.7244 36.17 85.8513 36.1232 85.9763 36.088C86.1013 36.049 86.2283 36.0177 86.3572 35.9943C86.4861 35.9708 86.6169 35.9552 86.7498 35.9474C86.8865 35.9357 87.0291 35.9298 87.1775 35.9298C87.5876 35.9298 87.9373 35.9806 88.2263 36.0822C88.5193 36.1798 88.7576 36.3165 88.9412 36.4923C89.1287 36.6642 89.2654 36.8673 89.3513 37.1017C89.4373 37.3322 89.4802 37.5802 89.4802 37.8458V39.756C89.4802 40.088 89.4841 40.379 89.4919 40.629C89.5037 40.8751 89.5154 41.088 89.5271 41.2677C89.5427 41.4474 89.5603 41.5978 89.5798 41.7189C89.6033 41.84 89.6267 41.9415 89.6501 42.0236V42.047H88.3552V42.0236C88.3748 41.9611 88.3884 41.8907 88.3962 41.8126C88.408 41.7345 88.4177 41.6407 88.4255 41.5314C88.3435 41.6017 88.2458 41.674 88.1326 41.7482C88.0232 41.8224 87.8962 41.8907 87.7517 41.9532C87.6111 42.0118 87.4529 42.0587 87.2771 42.0939C87.1052 42.1329 86.9158 42.1525 86.7087 42.1525C86.0291 42.1525 85.5037 41.9943 85.1326 41.6779C84.7615 41.3575 84.5759 40.9044 84.5759 40.3185ZM88.4607 38.6134C88.1052 38.6173 87.7634 38.6388 87.4353 38.6779C87.1072 38.713 86.8162 38.7892 86.5623 38.9064C86.3123 39.0236 86.1111 39.1915 85.9587 39.4103C85.8103 39.6251 85.7361 39.9122 85.7361 40.2716C85.7361 40.7325 85.8513 41.0841 86.0818 41.3263C86.3123 41.5685 86.6306 41.6896 87.0369 41.6896C87.2244 41.6896 87.3943 41.6642 87.5466 41.6134C87.7029 41.5587 87.8396 41.4923 87.9568 41.4142C88.0779 41.3322 88.1794 41.2443 88.2615 41.1505C88.3435 41.0529 88.406 40.9591 88.449 40.8693C88.4568 40.7208 88.4607 40.5568 88.4607 40.3771C88.4607 40.1935 88.4607 39.9865 88.4607 39.756V38.6134ZM93.9275 35.9415C94.0876 35.9415 94.2478 35.9552 94.408 35.9825C94.5681 36.0099 94.7244 36.049 94.8767 36.0997C95.0291 36.1505 95.1736 36.213 95.3103 36.2872C95.447 36.3615 95.5701 36.4454 95.6794 36.5392V35.5782C95.6794 35.2462 95.6755 34.9572 95.6677 34.7111C95.6599 34.4611 95.6482 34.2462 95.6326 34.0665C95.6169 33.8868 95.5994 33.7365 95.5798 33.6154C95.5603 33.4943 95.5388 33.3927 95.5154 33.3107V33.2872H96.8689V33.3107C96.8455 33.3927 96.822 33.4943 96.7986 33.6154C96.7791 33.7365 96.7615 33.8868 96.7458 34.0665C96.7341 34.2462 96.7224 34.4611 96.7107 34.7111C96.7029 34.9572 96.699 35.2462 96.699 35.5782V39.756C96.699 40.088 96.7029 40.379 96.7107 40.629C96.7224 40.8751 96.7341 41.088 96.7458 41.2677C96.7615 41.4474 96.7791 41.5978 96.7986 41.7189C96.822 41.84 96.8455 41.9415 96.8689 42.0236V42.047H95.574V42.0236C95.5857 41.9923 95.5955 41.9474 95.6033 41.8888C95.6111 41.8263 95.6208 41.7501 95.6326 41.6603C95.4333 41.7853 95.1833 41.8986 94.8826 42.0001C94.5818 42.1017 94.2322 42.1525 93.8337 42.1525C93.3689 42.1525 92.947 42.0802 92.5681 41.9357C92.1892 41.7911 91.865 41.5841 91.5955 41.3146C91.3298 41.045 91.1248 40.7189 90.9802 40.3361C90.8357 39.9493 90.7634 39.5157 90.7634 39.0353C90.7634 38.5939 90.8416 38.1857 90.9978 37.8107C91.1541 37.4318 91.3728 37.1036 91.6541 36.8263C91.9353 36.549 92.2693 36.3322 92.656 36.1759C93.0427 36.0197 93.4666 35.9415 93.9275 35.9415ZM95.6794 37.5704C95.5232 37.1603 95.2986 36.8575 95.0056 36.6622C94.7166 36.4669 94.3904 36.3693 94.0271 36.3693C93.7224 36.3693 93.4412 36.424 93.1833 36.5333C92.9255 36.6388 92.7048 36.7931 92.5212 36.9962C92.3376 37.1993 92.1931 37.4493 92.0876 37.7462C91.9861 38.0392 91.9353 38.3732 91.9353 38.7482C91.9353 39.17 91.9822 39.5626 92.0759 39.9259C92.1697 40.2892 92.3064 40.6056 92.4861 40.8751C92.6697 41.1407 92.8962 41.3497 93.1658 41.5021C93.4353 41.6505 93.7458 41.7247 94.0974 41.7247C94.281 41.7247 94.4529 41.7032 94.613 41.6603C94.7732 41.6173 94.9197 41.5626 95.0525 41.4962C95.1853 41.4298 95.3025 41.3575 95.4041 41.2794C95.5056 41.1974 95.5896 41.1173 95.656 41.0392C95.6638 40.8712 95.6697 40.6798 95.6736 40.465C95.6775 40.2501 95.6794 40.0138 95.6794 39.756V37.5704ZM101.135 42.1525C100.701 42.1525 100.295 42.0841 99.9158 41.9474C99.5369 41.8107 99.2068 41.6115 98.9255 41.3497C98.6443 41.0841 98.4216 40.7579 98.2576 40.3712C98.0974 39.9806 98.0173 39.5353 98.0173 39.0353C98.0173 38.5939 98.0916 38.1857 98.24 37.8107C98.3884 37.4318 98.5935 37.1036 98.8552 36.8263C99.1169 36.549 99.4216 36.3322 99.7693 36.1759C100.121 36.0197 100.5 35.9415 100.906 35.9415C101.308 35.9415 101.681 36.0118 102.025 36.1525C102.369 36.2892 102.666 36.4904 102.916 36.756C103.17 37.0177 103.369 37.3439 103.513 37.7345C103.662 38.1212 103.742 38.5626 103.754 39.0587C103.312 39.0509 102.871 39.045 102.429 39.0411C101.988 39.0372 101.529 39.0353 101.052 39.0353C100.713 39.0353 100.381 39.0372 100.056 39.0411C99.7361 39.045 99.447 39.0509 99.1892 39.0587C99.2126 39.465 99.2751 39.8322 99.3767 40.1603C99.4822 40.4884 99.6248 40.7697 99.8044 41.004C99.988 41.2345 100.209 41.4122 100.467 41.5372C100.728 41.6622 101.023 41.7247 101.351 41.7247C101.578 41.7247 101.791 41.6993 101.99 41.6486C102.193 41.5939 102.377 41.5197 102.541 41.4259C102.705 41.3322 102.851 41.2228 102.98 41.0978C103.109 40.9689 103.219 40.8302 103.308 40.6818L103.379 40.7169L102.945 41.7599C102.734 41.8693 102.482 41.963 102.189 42.0411C101.896 42.1154 101.545 42.1525 101.135 42.1525ZM100.355 38.5782C100.746 38.5782 101.136 38.5782 101.527 38.5782C101.922 38.5743 102.279 38.5665 102.599 38.5548C102.564 38.215 102.498 37.9103 102.4 37.6407C102.302 37.3712 102.177 37.1427 102.025 36.9552C101.873 36.7677 101.693 36.6232 101.486 36.5216C101.279 36.42 101.051 36.3693 100.801 36.3693C100.574 36.3693 100.365 36.42 100.174 36.5216C99.9861 36.6193 99.822 36.7618 99.6814 36.9493C99.5408 37.1368 99.4275 37.3673 99.3416 37.6407C99.2556 37.9103 99.2048 38.2189 99.1892 38.5665C99.365 38.5743 99.5505 38.5782 99.7458 38.5782C99.9412 38.5782 100.144 38.5782 100.355 38.5782ZM108.611 38.2208C108.611 37.8888 108.605 37.5997 108.594 37.3536C108.586 37.1036 108.574 36.8888 108.558 36.7091C108.547 36.5294 108.529 36.379 108.506 36.2579C108.486 36.1368 108.465 36.0353 108.441 35.9532V35.9298H109.795V35.9532C109.775 36.0118 109.758 36.0782 109.742 36.1525C109.726 36.2267 109.713 36.3107 109.701 36.4044C109.931 36.2716 110.185 36.1603 110.463 36.0704C110.744 35.9767 111.054 35.9298 111.394 35.9298C111.828 35.9298 112.222 36.004 112.578 36.1525C112.937 36.297 113.244 36.506 113.498 36.7794C113.756 37.0529 113.955 37.3829 114.095 37.7697C114.236 38.1564 114.306 38.59 114.306 39.0704C114.306 39.4728 114.236 39.8595 114.095 40.2306C113.959 40.6017 113.756 40.9298 113.486 41.215C113.22 41.5001 112.892 41.7286 112.502 41.9005C112.111 42.0685 111.662 42.1525 111.154 42.1525C110.849 42.1525 110.572 42.129 110.322 42.0822C110.072 42.0353 109.842 41.9747 109.631 41.9005V42.756C109.631 43.088 109.635 43.3771 109.642 43.6232C109.65 43.8732 109.662 44.088 109.677 44.2677C109.693 44.4474 109.711 44.5978 109.73 44.7189C109.75 44.84 109.771 44.9415 109.795 45.0236V45.047H108.441V45.0236C108.465 44.9415 108.486 44.84 108.506 44.7189C108.529 44.5978 108.547 44.4474 108.558 44.2677C108.574 44.088 108.586 43.8732 108.594 43.6232C108.605 43.3771 108.611 43.088 108.611 42.756V38.2208ZM111.189 36.3693C111.056 36.3693 110.92 36.3868 110.779 36.422C110.642 36.4532 110.506 36.5001 110.369 36.5626C110.236 36.6212 110.107 36.6974 109.982 36.7911C109.861 36.881 109.752 36.9845 109.654 37.1017C109.646 37.2501 109.64 37.4181 109.636 37.6056C109.633 37.7931 109.631 37.9982 109.631 38.2208V41.2911C109.709 41.3497 109.797 41.4044 109.894 41.4552C109.992 41.506 110.101 41.5529 110.222 41.5958C110.347 41.6349 110.486 41.6661 110.638 41.6896C110.795 41.713 110.967 41.7247 111.154 41.7247C111.459 41.7247 111.734 41.67 111.98 41.5607C112.226 41.4513 112.433 41.2931 112.601 41.0861C112.773 40.879 112.904 40.6271 112.994 40.3302C113.088 40.0333 113.135 39.6974 113.135 39.3224C113.135 38.9005 113.099 38.5099 113.029 38.1505C112.959 37.7872 112.845 37.4747 112.689 37.213C112.537 36.9474 112.338 36.7404 112.092 36.5919C111.845 36.4435 111.545 36.3693 111.189 36.3693ZM115.15 40.3185C115.15 40.0099 115.213 39.7423 115.338 39.5157C115.467 39.2892 115.636 39.0958 115.847 38.9357C116.058 38.7755 116.299 38.6466 116.568 38.549C116.838 38.4474 117.117 38.3693 117.406 38.3146C117.695 38.256 117.98 38.2169 118.261 38.1974C118.543 38.174 118.801 38.1603 119.035 38.1564V37.8575C119.035 37.5997 119.002 37.3771 118.935 37.1896C118.869 37.0021 118.775 36.8478 118.654 36.7267C118.533 36.6017 118.386 36.5099 118.215 36.4513C118.047 36.3888 117.861 36.3575 117.658 36.3575C117.517 36.3575 117.379 36.3693 117.242 36.3927C117.105 36.4161 116.963 36.4552 116.814 36.5099C116.67 36.5646 116.515 36.6388 116.351 36.7325C116.191 36.8263 116.017 36.9454 115.83 37.09L115.771 37.0548L116.17 36.2286C116.299 36.17 116.426 36.1232 116.551 36.088C116.676 36.049 116.802 36.0177 116.931 35.9943C117.06 35.9708 117.191 35.9552 117.324 35.9474C117.461 35.9357 117.603 35.9298 117.752 35.9298C118.162 35.9298 118.511 35.9806 118.801 36.0822C119.094 36.1798 119.332 36.3165 119.515 36.4923C119.703 36.6642 119.84 36.8673 119.926 37.1017C120.011 37.3322 120.054 37.5802 120.054 37.8458V39.756C120.054 40.088 120.058 40.379 120.066 40.629C120.078 40.8751 120.09 41.088 120.101 41.2677C120.117 41.4474 120.135 41.5978 120.154 41.7189C120.177 41.84 120.201 41.9415 120.224 42.0236V42.047H118.929V42.0236C118.949 41.9611 118.963 41.8907 118.97 41.8126C118.982 41.7345 118.992 41.6407 119 41.5314C118.918 41.6017 118.82 41.674 118.707 41.7482C118.597 41.8224 118.47 41.8907 118.326 41.9532C118.185 42.0118 118.027 42.0587 117.851 42.0939C117.679 42.1329 117.49 42.1525 117.283 42.1525C116.603 42.1525 116.078 41.9943 115.707 41.6779C115.336 41.3575 115.15 40.9044 115.15 40.3185ZM119.035 38.6134C118.679 38.6173 118.338 38.6388 118.01 38.6779C117.681 38.713 117.39 38.7892 117.136 38.9064C116.886 39.0236 116.685 39.1915 116.533 39.4103C116.385 39.6251 116.31 39.9122 116.31 40.2716C116.31 40.7325 116.426 41.0841 116.656 41.3263C116.886 41.5685 117.205 41.6896 117.611 41.6896C117.799 41.6896 117.969 41.6642 118.121 41.6134C118.277 41.5587 118.414 41.4923 118.531 41.4142C118.652 41.3322 118.754 41.2443 118.836 41.1505C118.918 41.0529 118.98 40.9591 119.023 40.8693C119.031 40.7208 119.035 40.5568 119.035 40.3771C119.035 40.1935 119.035 39.9865 119.035 39.756V38.6134ZM121.83 38.338C121.83 38.006 121.824 37.7169 121.812 37.4708C121.804 37.2208 121.793 37.006 121.777 36.8263C121.765 36.6466 121.748 36.4962 121.724 36.3751C121.705 36.254 121.683 36.1525 121.66 36.0704V36.047H123.013V36.0704C122.982 36.1603 122.955 36.2697 122.931 36.3986C122.912 36.5275 122.896 36.6935 122.885 36.8966C123.029 36.7755 123.179 36.6564 123.336 36.5392C123.492 36.422 123.652 36.3185 123.816 36.2286C123.98 36.1388 124.146 36.0665 124.314 36.0118C124.486 35.9572 124.658 35.9298 124.83 35.9298C124.935 35.9298 125.027 35.9357 125.105 35.9474C125.183 35.9552 125.254 35.9689 125.316 35.9884C125.379 36.004 125.435 36.0236 125.486 36.047C125.537 36.0665 125.586 36.0861 125.633 36.1056L125.345 37.2247L125.246 37.2013C125.199 37.0294 125.111 36.8927 124.982 36.7911C124.853 36.6857 124.677 36.6329 124.455 36.6329C124.334 36.6329 124.207 36.6544 124.074 36.6974C123.941 36.7404 123.806 36.8009 123.67 36.879C123.533 36.9532 123.396 37.0411 123.26 37.1427C123.123 37.2404 122.99 37.3439 122.861 37.4532C122.853 37.5665 122.849 37.6896 122.849 37.8224C122.849 37.9552 122.849 38.0958 122.849 38.2443V39.756C122.849 40.088 122.853 40.379 122.861 40.629C122.869 40.8751 122.881 41.088 122.896 41.2677C122.912 41.4474 122.929 41.5978 122.949 41.7189C122.969 41.84 122.99 41.9415 123.013 42.0236V42.047H121.66V42.0236C121.683 41.9415 121.705 41.84 121.724 41.7189C121.748 41.5978 121.765 41.4474 121.777 41.2677C121.793 41.088 121.804 40.8751 121.812 40.629C121.824 40.379 121.83 40.088 121.83 39.756V38.338ZM125.826 40.3185C125.826 40.0099 125.888 39.7423 126.013 39.5157C126.142 39.2892 126.312 39.0958 126.523 38.9357C126.734 38.7755 126.974 38.6466 127.244 38.549C127.513 38.4474 127.793 38.3693 128.082 38.3146C128.371 38.256 128.656 38.2169 128.937 38.1974C129.219 38.174 129.476 38.1603 129.711 38.1564V37.8575C129.711 37.5997 129.677 37.3771 129.611 37.1896C129.545 37.0021 129.451 36.8478 129.33 36.7267C129.209 36.6017 129.062 36.5099 128.89 36.4513C128.722 36.3888 128.537 36.3575 128.334 36.3575C128.193 36.3575 128.054 36.3693 127.918 36.3927C127.781 36.4161 127.638 36.4552 127.49 36.5099C127.345 36.5646 127.191 36.6388 127.027 36.7325C126.867 36.8263 126.693 36.9454 126.506 37.09L126.447 37.0548L126.845 36.2286C126.974 36.17 127.101 36.1232 127.226 36.088C127.351 36.049 127.478 36.0177 127.607 35.9943C127.736 35.9708 127.867 35.9552 128 35.9474C128.136 35.9357 128.279 35.9298 128.427 35.9298C128.838 35.9298 129.187 35.9806 129.476 36.0822C129.769 36.1798 130.008 36.3165 130.191 36.4923C130.379 36.6642 130.515 36.8673 130.601 37.1017C130.687 37.3322 130.73 37.5802 130.73 37.8458V39.756C130.73 40.088 130.734 40.379 130.742 40.629C130.754 40.8751 130.765 41.088 130.777 41.2677C130.793 41.4474 130.81 41.5978 130.83 41.7189C130.853 41.84 130.877 41.9415 130.9 42.0236V42.047H129.605V42.0236C129.625 41.9611 129.638 41.8907 129.646 41.8126C129.658 41.7345 129.668 41.6407 129.676 41.5314C129.594 41.6017 129.496 41.674 129.383 41.7482C129.273 41.8224 129.146 41.8907 129.002 41.9532C128.861 42.0118 128.703 42.0587 128.527 42.0939C128.355 42.1329 128.166 42.1525 127.959 42.1525C127.279 42.1525 126.754 41.9943 126.383 41.6779C126.011 41.3575 125.826 40.9044 125.826 40.3185ZM129.711 38.6134C129.355 38.6173 129.013 38.6388 128.685 38.6779C128.357 38.713 128.066 38.7892 127.812 38.9064C127.562 39.0236 127.361 39.1915 127.209 39.4103C127.06 39.6251 126.986 39.9122 126.986 40.2716C126.986 40.7325 127.101 41.0841 127.332 41.3263C127.562 41.5685 127.881 41.6896 128.287 41.6896C128.474 41.6896 128.644 41.6642 128.797 41.6134C128.953 41.5587 129.09 41.4923 129.207 41.4142C129.328 41.3322 129.429 41.2443 129.511 41.1505C129.594 41.0529 129.656 40.9591 129.699 40.8693C129.707 40.7208 129.711 40.5568 129.711 40.3771C129.711 40.1935 129.711 39.9865 129.711 39.756V38.6134ZM138.752 37.2247L138.67 37.2365C138.642 37.1466 138.597 37.0509 138.535 36.9493C138.476 36.8478 138.398 36.754 138.301 36.6681C138.207 36.5822 138.092 36.5118 137.955 36.4572C137.822 36.3986 137.668 36.3693 137.492 36.3693C137.371 36.3693 137.256 36.3868 137.146 36.422C137.041 36.4572 136.947 36.5099 136.865 36.5802C136.787 36.6466 136.724 36.7306 136.677 36.8322C136.631 36.9337 136.607 37.0529 136.607 37.1896C136.607 37.381 136.666 37.5646 136.783 37.7404C136.904 37.9122 137.054 38.0841 137.234 38.256C137.414 38.424 137.607 38.5939 137.814 38.7657C138.025 38.9376 138.22 39.1173 138.4 39.3048C138.58 39.4923 138.728 39.6935 138.845 39.9083C138.967 40.1193 139.027 40.3478 139.027 40.5939C139.027 40.7931 138.992 40.9884 138.922 41.1798C138.851 41.3673 138.742 41.5353 138.594 41.6837C138.449 41.8322 138.261 41.9532 138.031 42.047C137.804 42.1368 137.533 42.1818 137.217 42.1818C137.029 42.1818 136.853 42.1642 136.689 42.129C136.529 42.0939 136.381 42.0509 136.244 42.0001C136.111 41.9454 135.99 41.8868 135.881 41.8243C135.775 41.7579 135.681 41.6954 135.599 41.6368L135.658 40.5236H135.752C135.791 40.7072 135.849 40.8751 135.927 41.0275C136.006 41.1798 136.101 41.3107 136.215 41.42C136.332 41.5255 136.465 41.6095 136.613 41.672C136.761 41.7306 136.924 41.7599 137.099 41.7599C137.388 41.7599 137.617 41.6798 137.785 41.5197C137.957 41.3595 138.043 41.1505 138.043 40.8927C138.043 40.6857 137.984 40.4962 137.867 40.3243C137.754 40.1486 137.609 39.9806 137.433 39.8204C137.258 39.6603 137.068 39.5001 136.865 39.34C136.666 39.1798 136.478 39.0099 136.302 38.8302C136.127 38.6466 135.98 38.4474 135.863 38.2325C135.75 38.0138 135.693 37.7657 135.693 37.4884C135.693 37.2618 135.734 37.0548 135.816 36.8673C135.902 36.6759 136.019 36.5138 136.168 36.381C136.32 36.2443 136.5 36.1388 136.707 36.0646C136.914 35.9904 137.14 35.9532 137.386 35.9532C137.711 35.9532 137.98 35.9884 138.195 36.0587C138.414 36.1251 138.58 36.1896 138.693 36.2521L138.752 37.2247ZM141.342 39.9962C141.342 40.5118 141.443 40.8907 141.646 41.1329C141.853 41.3751 142.131 41.4962 142.478 41.4962C142.603 41.4962 142.744 41.4708 142.9 41.42C143.056 41.3654 143.217 41.295 143.381 41.2091C143.549 41.1193 143.715 41.0157 143.879 40.8986C144.047 40.7814 144.201 40.6564 144.342 40.5236C144.349 40.4103 144.353 40.2911 144.353 40.1661C144.353 40.0372 144.353 39.9005 144.353 39.756V38.338C144.353 38.006 144.347 37.7169 144.336 37.4708C144.328 37.2208 144.316 37.006 144.301 36.8263C144.289 36.6466 144.271 36.4962 144.248 36.3751C144.228 36.254 144.207 36.1525 144.183 36.0704V36.047H145.537V36.0704C145.513 36.1525 145.492 36.254 145.472 36.3751C145.453 36.4962 145.435 36.6466 145.42 36.8263C145.404 37.006 145.392 37.2208 145.385 37.4708C145.377 37.7169 145.373 38.006 145.373 38.338V39.756C145.373 40.088 145.377 40.379 145.385 40.629C145.392 40.8751 145.404 41.088 145.42 41.2677C145.435 41.4474 145.453 41.5978 145.472 41.7189C145.492 41.84 145.513 41.9415 145.537 42.0236V42.047H144.183V42.0236C144.207 41.9259 144.23 41.8009 144.254 41.6486C144.281 41.4962 144.301 41.297 144.312 41.0509C144.152 41.1876 143.978 41.3224 143.791 41.4552C143.607 41.588 143.414 41.7072 143.211 41.8126C143.011 41.9181 142.808 42.0021 142.601 42.0646C142.398 42.131 142.197 42.1642 141.998 42.1642C141.693 42.1642 141.433 42.1115 141.219 42.006C141.008 41.9005 140.834 41.7618 140.697 41.59C140.564 41.4181 140.467 41.2228 140.404 41.004C140.345 40.7853 140.316 40.5607 140.316 40.3302V38.338C140.316 38.006 140.312 37.7169 140.304 37.4708C140.297 37.2208 140.285 37.006 140.269 36.8263C140.254 36.6466 140.236 36.4962 140.217 36.3751C140.197 36.254 140.176 36.1525 140.152 36.0704V36.047H141.506V36.0704C141.482 36.1525 141.461 36.254 141.441 36.3751C141.422 36.4962 141.404 36.6466 141.388 36.8263C141.373 37.006 141.361 37.2208 141.353 37.4708C141.345 37.7169 141.342 38.006 141.342 38.338V39.9962ZM146.709 40.3185C146.709 40.0099 146.771 39.7423 146.896 39.5157C147.025 39.2892 147.195 39.0958 147.406 38.9357C147.617 38.7755 147.857 38.6466 148.127 38.549C148.396 38.4474 148.676 38.3693 148.965 38.3146C149.254 38.256 149.539 38.2169 149.82 38.1974C150.101 38.174 150.359 38.1603 150.594 38.1564V37.8575C150.594 37.5997 150.56 37.3771 150.494 37.1896C150.427 37.0021 150.334 36.8478 150.213 36.7267C150.092 36.6017 149.945 36.5099 149.773 36.4513C149.605 36.3888 149.42 36.3575 149.217 36.3575C149.076 36.3575 148.937 36.3693 148.801 36.3927C148.664 36.4161 148.521 36.4552 148.373 36.5099C148.228 36.5646 148.074 36.6388 147.91 36.7325C147.75 36.8263 147.576 36.9454 147.388 37.09L147.33 37.0548L147.728 36.2286C147.857 36.17 147.984 36.1232 148.109 36.088C148.234 36.049 148.361 36.0177 148.49 35.9943C148.619 35.9708 148.75 35.9552 148.883 35.9474C149.019 35.9357 149.162 35.9298 149.31 35.9298C149.72 35.9298 150.07 35.9806 150.359 36.0822C150.652 36.1798 150.89 36.3165 151.074 36.4923C151.261 36.6642 151.398 36.8673 151.484 37.1017C151.57 37.3322 151.613 37.5802 151.613 37.8458V39.756C151.613 40.088 151.617 40.379 151.625 40.629C151.636 40.8751 151.648 41.088 151.66 41.2677C151.676 41.4474 151.693 41.5978 151.713 41.7189C151.736 41.84 151.76 41.9415 151.783 42.0236V42.047H150.488V42.0236C150.508 41.9611 150.521 41.8907 150.529 41.8126C150.541 41.7345 150.551 41.6407 150.558 41.5314C150.476 41.6017 150.379 41.674 150.265 41.7482C150.156 41.8224 150.029 41.8907 149.885 41.9532C149.744 42.0118 149.586 42.0587 149.41 42.0939C149.238 42.1329 149.049 42.1525 148.842 42.1525C148.162 42.1525 147.636 41.9943 147.265 41.6779C146.894 41.3575 146.709 40.9044 146.709 40.3185ZM150.594 38.6134C150.238 38.6173 149.896 38.6388 149.568 38.6779C149.24 38.713 148.949 38.7892 148.695 38.9064C148.445 39.0236 148.244 39.1915 148.092 39.4103C147.943 39.6251 147.869 39.9122 147.869 40.2716C147.869 40.7325 147.984 41.0841 148.215 41.3263C148.445 41.5685 148.763 41.6896 149.17 41.6896C149.357 41.6896 149.527 41.6642 149.679 41.6134C149.836 41.5587 149.972 41.4923 150.09 41.4142C150.211 41.3322 150.312 41.2443 150.394 41.1505C150.476 41.0529 150.539 40.9591 150.582 40.8693C150.59 40.7208 150.594 40.5568 150.594 40.3771C150.594 40.1935 150.594 39.9865 150.594 39.756V38.6134ZM156.986 38.338C156.986 38.006 156.98 37.7169 156.969 37.4708C156.961 37.2208 156.949 37.006 156.933 36.8263C156.922 36.6466 156.904 36.4962 156.881 36.3751C156.861 36.254 156.84 36.1525 156.816 36.0704V36.047H158.17V36.0704C158.138 36.1603 158.111 36.2697 158.088 36.3986C158.068 36.5275 158.052 36.6935 158.041 36.8966C158.185 36.7755 158.336 36.6564 158.492 36.5392C158.648 36.422 158.808 36.3185 158.972 36.2286C159.136 36.1388 159.302 36.0665 159.47 36.0118C159.642 35.9572 159.814 35.9298 159.986 35.9298C160.092 35.9298 160.183 35.9357 160.261 35.9474C160.34 35.9552 160.41 35.9689 160.472 35.9884C160.535 36.004 160.592 36.0236 160.642 36.047C160.693 36.0665 160.742 36.0861 160.789 36.1056L160.502 37.2247L160.402 37.2013C160.355 37.0294 160.267 36.8927 160.138 36.7911C160.01 36.6857 159.834 36.6329 159.611 36.6329C159.49 36.6329 159.363 36.6544 159.23 36.6974C159.097 36.7404 158.963 36.8009 158.826 36.879C158.689 36.9532 158.552 37.0411 158.416 37.1427C158.279 37.2404 158.146 37.3439 158.017 37.4532C158.01 37.5665 158.006 37.6896 158.006 37.8224C158.006 37.9552 158.006 38.0958 158.006 38.2443V39.756C158.006 40.088 158.01 40.379 158.017 40.629C158.025 40.8751 158.037 41.088 158.052 41.2677C158.068 41.4474 158.086 41.5978 158.105 41.7189C158.125 41.84 158.146 41.9415 158.17 42.0236V42.047H156.816V42.0236C156.84 41.9415 156.861 41.84 156.881 41.7189C156.904 41.5978 156.922 41.4474 156.933 41.2677C156.949 41.088 156.961 40.8751 156.969 40.629C156.98 40.379 156.986 40.088 156.986 39.756V38.338ZM161.205 39.0353C161.205 38.5939 161.287 38.1857 161.451 37.8107C161.615 37.4318 161.84 37.1036 162.125 36.8263C162.414 36.549 162.754 36.3322 163.144 36.1759C163.535 36.0197 163.955 35.9415 164.404 35.9415C164.845 35.9415 165.26 36.0157 165.646 36.1642C166.037 36.3087 166.377 36.5157 166.666 36.7853C166.955 37.0548 167.181 37.3829 167.345 37.7697C167.513 38.1564 167.597 38.59 167.597 39.0704C167.597 39.4728 167.527 39.8595 167.386 40.2306C167.246 40.6017 167.039 40.9298 166.765 41.215C166.492 41.5001 166.156 41.7286 165.758 41.9005C165.363 42.0685 164.908 42.1525 164.392 42.1525C163.955 42.1525 163.543 42.0802 163.156 41.9357C162.769 41.7911 162.431 41.5841 162.142 41.3146C161.853 41.045 161.625 40.7189 161.457 40.3361C161.289 39.9493 161.205 39.5157 161.205 39.0353ZM164.527 41.7247C164.804 41.7247 165.058 41.67 165.289 41.5607C165.523 41.4513 165.724 41.2931 165.892 41.0861C166.06 40.879 166.191 40.6271 166.285 40.3302C166.379 40.0333 166.426 39.6974 166.426 39.3224C166.426 38.9005 166.381 38.5099 166.291 38.1505C166.201 37.7872 166.066 37.4747 165.886 37.213C165.711 36.9474 165.488 36.7404 165.219 36.5919C164.949 36.4435 164.635 36.3693 164.275 36.3693C163.998 36.3693 163.744 36.424 163.513 36.5333C163.283 36.6388 163.082 36.7931 162.91 36.9962C162.742 37.1993 162.611 37.4493 162.517 37.7462C162.424 38.0392 162.377 38.3732 162.377 38.7482C162.377 39.17 162.422 39.5626 162.511 39.9259C162.605 40.2892 162.742 40.6056 162.922 40.8751C163.101 41.1407 163.324 41.3497 163.59 41.5021C163.859 41.6505 164.172 41.7247 164.527 41.7247ZM171.037 41.7013C171.154 41.7013 171.269 41.6798 171.383 41.6368C171.5 41.5939 171.611 41.5353 171.717 41.4611C171.826 41.3868 171.929 41.3029 172.027 41.2091C172.129 41.1115 172.222 41.0099 172.308 40.9044L172.367 40.9337L171.986 41.8771C171.939 41.9005 171.881 41.9298 171.81 41.965C171.744 41.9962 171.662 42.0255 171.564 42.0529C171.47 42.0841 171.359 42.1095 171.23 42.129C171.101 42.1525 170.949 42.1642 170.773 42.1642C170.25 42.1642 169.842 42.0236 169.549 41.7423C169.26 41.4572 169.115 41.0138 169.115 40.4122V36.504L168.131 36.5392V36.0236C168.252 36.0314 168.396 36.0372 168.564 36.0411C168.732 36.045 168.916 36.047 169.115 36.047C169.111 35.7697 169.103 35.5255 169.092 35.3146C169.084 35.0997 169.072 34.9142 169.056 34.7579C169.045 34.5978 169.029 34.463 169.01 34.3536C168.99 34.2443 168.97 34.1525 168.951 34.0782V34.0548H170.304V34.0782C170.281 34.1525 170.26 34.2443 170.24 34.3536C170.22 34.463 170.203 34.5958 170.187 34.7521C170.176 34.9083 170.164 35.0939 170.152 35.3087C170.144 35.5197 170.138 35.7657 170.135 36.047C170.381 36.0431 170.621 36.0392 170.855 36.0353C171.094 36.0275 171.308 36.0197 171.5 36.0118C171.695 36.0001 171.859 35.9904 171.992 35.9825C172.129 35.9708 172.219 35.9611 172.261 35.9532L172.156 36.5509C171.957 36.547 171.748 36.5411 171.529 36.5333C171.342 36.5255 171.127 36.5197 170.885 36.5157C170.642 36.5118 170.392 36.5079 170.135 36.504V40.5353C170.135 40.7775 170.16 40.9747 170.211 41.1271C170.265 41.2755 170.334 41.3927 170.416 41.4786C170.502 41.5646 170.597 41.6232 170.703 41.6544C170.812 41.6857 170.924 41.7013 171.037 41.7013ZM173.556 38.338C173.556 38.006 173.551 37.7169 173.539 37.4708C173.531 37.2208 173.519 37.006 173.504 36.8263C173.492 36.6466 173.474 36.4962 173.451 36.3751C173.431 36.254 173.41 36.1525 173.386 36.0704V36.047H174.74V36.0704C174.717 36.1525 174.695 36.254 174.676 36.3751C174.656 36.4962 174.638 36.6466 174.623 36.8263C174.607 37.006 174.595 37.2208 174.588 37.4708C174.58 37.7169 174.576 38.006 174.576 38.338V39.756C174.576 40.088 174.58 40.379 174.588 40.629C174.595 40.8751 174.607 41.088 174.623 41.2677C174.638 41.4474 174.656 41.5978 174.676 41.7189C174.695 41.84 174.717 41.9415 174.74 42.0236V42.047H173.386V42.0236C173.41 41.9415 173.431 41.84 173.451 41.7189C173.474 41.5978 173.492 41.4474 173.504 41.2677C173.519 41.088 173.531 40.8751 173.539 40.629C173.551 40.379 173.556 40.088 173.556 39.756V38.338ZM173.433 34.2716C173.433 34.1857 173.449 34.1056 173.48 34.0314C173.515 33.9532 173.56 33.8868 173.615 33.8322C173.67 33.7736 173.734 33.7286 173.808 33.6974C173.886 33.6622 173.97 33.6447 174.06 33.6447C174.15 33.6447 174.232 33.6622 174.306 33.6974C174.385 33.7286 174.451 33.7736 174.506 33.8322C174.564 33.8868 174.609 33.9532 174.64 34.0314C174.676 34.1056 174.693 34.1857 174.693 34.2716C174.693 34.4513 174.633 34.6017 174.511 34.7228C174.39 34.8439 174.24 34.9044 174.06 34.9044C173.97 34.9044 173.886 34.8888 173.808 34.8575C173.734 34.8224 173.67 34.7775 173.615 34.7228C173.56 34.6642 173.515 34.5978 173.48 34.5236C173.449 34.4454 173.433 34.3615 173.433 34.2716ZM180.447 38.0978C180.447 37.5822 180.344 37.2032 180.136 36.9611C179.929 36.7189 179.652 36.5978 179.304 36.5978C179.179 36.5978 179.039 36.6251 178.883 36.6798C178.726 36.7306 178.566 36.8009 178.402 36.8907C178.238 36.9767 178.074 37.0782 177.91 37.1954C177.746 37.3126 177.592 37.4376 177.447 37.5704L177.435 38.338V39.756C177.435 40.088 177.439 40.379 177.447 40.629C177.455 40.8751 177.467 41.088 177.482 41.2677C177.498 41.4474 177.515 41.5978 177.535 41.7189C177.554 41.84 177.576 41.9415 177.599 42.0236V42.047H176.246V42.0236C176.269 41.9415 176.291 41.84 176.31 41.7189C176.334 41.5978 176.351 41.4474 176.363 41.2677C176.379 41.088 176.39 40.8751 176.398 40.629C176.41 40.379 176.416 40.088 176.416 39.756V38.338C176.416 38.006 176.41 37.7169 176.398 37.4708C176.39 37.2208 176.379 37.006 176.363 36.8263C176.351 36.6466 176.334 36.4962 176.31 36.3751C176.291 36.254 176.269 36.1525 176.246 36.0704V36.047H177.599V36.0704C177.568 36.1681 177.543 36.2931 177.523 36.4454C177.508 36.5939 177.49 36.7892 177.47 37.0314C177.631 36.8986 177.802 36.7657 177.986 36.6329C178.174 36.5001 178.367 36.3829 178.566 36.2814C178.765 36.1759 178.969 36.0919 179.176 36.0294C179.383 35.963 179.586 35.9298 179.785 35.9298C180.09 35.9298 180.347 35.9825 180.558 36.088C180.773 36.1935 180.947 36.3322 181.08 36.504C181.217 36.6759 181.314 36.8732 181.373 37.0958C181.435 37.3146 181.467 37.5372 181.467 37.7638V39.756C181.467 40.088 181.47 40.379 181.478 40.629C181.486 40.8751 181.498 41.088 181.513 41.2677C181.529 41.4474 181.547 41.5978 181.566 41.7189C181.586 41.84 181.607 41.9415 181.631 42.0236V42.047H180.277V42.0236C180.301 41.9415 180.322 41.84 180.342 41.7189C180.365 41.5978 180.383 41.4474 180.394 41.2677C180.41 41.088 180.422 40.8751 180.429 40.629C180.441 40.379 180.447 40.088 180.447 39.756V38.0978ZM182.767 40.3185C182.767 40.0099 182.83 39.7423 182.955 39.5157C183.084 39.2892 183.254 39.0958 183.465 38.9357C183.676 38.7755 183.916 38.6466 184.185 38.549C184.455 38.4474 184.734 38.3693 185.023 38.3146C185.312 38.256 185.597 38.2169 185.879 38.1974C186.16 38.174 186.418 38.1603 186.652 38.1564V37.8575C186.652 37.5997 186.619 37.3771 186.552 37.1896C186.486 37.0021 186.392 36.8478 186.271 36.7267C186.15 36.6017 186.004 36.5099 185.832 36.4513C185.664 36.3888 185.478 36.3575 185.275 36.3575C185.135 36.3575 184.996 36.3693 184.859 36.3927C184.722 36.4161 184.58 36.4552 184.431 36.5099C184.287 36.5646 184.133 36.6388 183.969 36.7325C183.808 36.8263 183.635 36.9454 183.447 37.09L183.388 37.0548L183.787 36.2286C183.916 36.17 184.043 36.1232 184.168 36.088C184.293 36.049 184.42 36.0177 184.549 35.9943C184.677 35.9708 184.808 35.9552 184.941 35.9474C185.078 35.9357 185.22 35.9298 185.369 35.9298C185.779 35.9298 186.129 35.9806 186.418 36.0822C186.711 36.1798 186.949 36.3165 187.133 36.4923C187.32 36.6642 187.457 36.8673 187.543 37.1017C187.629 37.3322 187.672 37.5802 187.672 37.8458V39.756C187.672 40.088 187.676 40.379 187.683 40.629C187.695 40.8751 187.707 41.088 187.719 41.2677C187.734 41.4474 187.752 41.5978 187.771 41.7189C187.795 41.84 187.818 41.9415 187.842 42.0236V42.047H186.547V42.0236C186.566 41.9611 186.58 41.8907 186.588 41.8126C186.599 41.7345 186.609 41.6407 186.617 41.5314C186.535 41.6017 186.437 41.674 186.324 41.7482C186.215 41.8224 186.088 41.8907 185.943 41.9532C185.802 42.0118 185.644 42.0587 185.469 42.0939C185.297 42.1329 185.107 42.1525 184.9 42.1525C184.22 42.1525 183.695 41.9943 183.324 41.6779C182.953 41.3575 182.767 40.9044 182.767 40.3185ZM186.652 38.6134C186.297 38.6173 185.955 38.6388 185.627 38.6779C185.299 38.713 185.008 38.7892 184.754 38.9064C184.504 39.0236 184.302 39.1915 184.15 39.4103C184.002 39.6251 183.927 39.9122 183.927 40.2716C183.927 40.7325 184.043 41.0841 184.273 41.3263C184.504 41.5685 184.822 41.6896 185.228 41.6896C185.416 41.6896 185.586 41.6642 185.738 41.6134C185.894 41.5587 186.031 41.4923 186.148 41.4142C186.269 41.3322 186.371 41.2443 186.453 41.1505C186.535 41.0529 186.597 40.9591 186.64 40.8693C186.648 40.7208 186.652 40.5568 186.652 40.3771C186.652 40.1935 186.652 39.9865 186.652 39.756V38.6134Z" fill="#763F21"/>
<path d="M18.6463 17.0236C18.4041 17.0236 18.1033 17.0236 17.7439 17.0236C17.3846 17.0157 16.9939 17.0079 16.5721 17.0001C16.1502 16.9923 15.7127 16.9884 15.2596 16.9884C14.8064 16.9806 14.3689 16.9767 13.9471 16.9767C13.5486 16.9767 13.1736 16.9806 12.8221 16.9884C12.4783 16.9962 12.1814 17.0079 11.9314 17.0236V18.2189C11.9314 18.922 11.9392 19.5353 11.9549 20.0587C11.9705 20.5822 11.99 21.0353 12.0135 21.4181C12.0447 21.7931 12.0799 22.1095 12.1189 22.3673C12.158 22.6251 12.2049 22.8361 12.2596 23.0001V23.047H9.55252V23.0001C9.60721 22.8361 9.65408 22.6251 9.69315 22.3673C9.74002 22.1095 9.77518 21.7931 9.79861 21.4181C9.82986 21.0353 9.8533 20.5822 9.86893 20.0587C9.88455 19.5353 9.89236 18.922 9.89236 18.2189V15.2657C9.89236 14.5626 9.88455 13.9532 9.86893 13.4376C9.8533 12.9142 9.82986 12.465 9.79861 12.09C9.77518 11.7072 9.74002 11.3868 9.69315 11.129C9.65408 10.8712 9.60721 10.6603 9.55252 10.4962V10.4493H12.2596V10.4962C12.2049 10.6603 12.158 10.8712 12.1189 11.129C12.0799 11.3868 12.0447 11.7072 12.0135 12.09C11.99 12.465 11.9705 12.9142 11.9549 13.4376C11.9392 13.9532 11.9314 14.5626 11.9314 15.2657V16.0626H13.6541C14.0838 16.0626 14.5369 16.0626 15.0135 16.0626C15.49 16.0548 15.951 16.0509 16.3963 16.0509C16.8416 16.0431 17.2596 16.0353 17.6502 16.0275C18.0408 16.0197 18.3728 16.0079 18.6463 15.9923V15.2657C18.6463 14.5626 18.6385 13.9532 18.6228 13.4376C18.6072 12.9142 18.5838 12.465 18.5525 12.09C18.5291 11.7072 18.4978 11.3868 18.4588 11.129C18.4197 10.8712 18.3728 10.6603 18.3181 10.4962V10.4493H21.0252V10.4962C20.9705 10.6603 20.9197 10.8712 20.8728 11.129C20.8338 11.3868 20.7986 11.7072 20.7674 12.09C20.7439 12.465 20.7244 12.9142 20.7088 13.4376C20.6931 13.9532 20.6853 14.5626 20.6853 15.2657V18.2189C20.6853 18.922 20.6931 19.5353 20.7088 20.0587C20.7244 20.5822 20.7439 21.0353 20.7674 21.4181C20.7986 21.7931 20.8338 22.1095 20.8728 22.3673C20.9197 22.6251 20.9705 22.8361 21.0252 23.0001V23.047H18.3181V23.0001C18.3728 22.8361 18.4197 22.6251 18.4588 22.3673C18.4978 22.1095 18.5291 21.7931 18.5525 21.4181C18.5838 21.0353 18.6072 20.5822 18.6228 20.0587C18.6385 19.5353 18.6463 18.922 18.6463 18.2189V17.0236ZM23.4392 16.7072C23.4392 15.7853 23.6111 14.9298 23.9549 14.1407C24.3064 13.3517 24.783 12.6681 25.3846 12.09C25.9861 11.504 26.6971 11.047 27.5174 10.7189C28.3377 10.3907 29.2166 10.2267 30.1541 10.2267C31.076 10.2267 31.9431 10.3829 32.7556 10.6954C33.576 11.0001 34.2869 11.4376 34.8885 12.0079C35.4978 12.5782 35.9783 13.2697 36.3299 14.0822C36.6814 14.8947 36.8572 15.8048 36.8572 16.8126C36.8572 17.6486 36.7088 18.4572 36.4119 19.2384C36.115 20.0118 35.6814 20.6993 35.1111 21.3009C34.5408 21.8947 33.8377 22.3712 33.0017 22.7306C32.1658 23.0822 31.2088 23.2579 30.1306 23.2579C29.2166 23.2579 28.3533 23.1056 27.5408 22.8009C26.7283 22.4962 26.0174 22.0626 25.408 21.5001C24.7986 20.9298 24.3181 20.2423 23.9666 19.4376C23.615 18.6251 23.4392 17.715 23.4392 16.7072ZM30.4236 22.4259C31.0174 22.4259 31.5642 22.3087 32.0642 22.0743C32.5642 21.84 32.9939 21.504 33.3533 21.0665C33.7205 20.629 34.0017 20.0978 34.1971 19.4728C34.4002 18.84 34.5017 18.129 34.5017 17.34C34.5017 16.4415 34.4041 15.6095 34.2088 14.8439C34.0213 14.0782 33.7322 13.4181 33.3416 12.8634C32.9588 12.3009 32.4783 11.8634 31.9002 11.5509C31.3221 11.2306 30.6463 11.0704 29.8728 11.0704C29.2791 11.0704 28.7322 11.1837 28.2322 11.4103C27.7322 11.6368 27.2986 11.965 26.9314 12.3947C26.5721 12.8243 26.2908 13.3517 26.0877 13.9767C25.8846 14.6017 25.783 15.3126 25.783 16.1095C25.783 17.0001 25.8806 17.8322 26.076 18.6056C26.2791 19.3712 26.5721 20.0392 26.9549 20.6095C27.3455 21.172 27.8299 21.6173 28.408 21.9454C28.9861 22.2657 29.658 22.4259 30.4236 22.4259ZM41.6267 16.9298C41.783 16.9532 41.9392 16.9728 42.0955 16.9884C42.2596 16.9962 42.4158 17.0001 42.5642 17.0001C43.5408 17.0001 44.2791 16.7384 44.7791 16.215C45.2869 15.6915 45.5408 14.9064 45.5408 13.8595C45.5408 13.0001 45.3377 12.3204 44.9314 11.8204C44.533 11.3204 43.9431 11.0704 43.1619 11.0704C42.9119 11.0704 42.6892 11.0822 42.4939 11.1056C42.3064 11.1212 42.1463 11.1407 42.0135 11.1642C41.865 11.1954 41.7361 11.2267 41.6267 11.2579V16.9298ZM43.4197 17.6915C43.2635 17.715 43.1072 17.7306 42.951 17.7384C42.8025 17.7384 42.6502 17.7384 42.4939 17.7384C42.3689 17.7384 42.2322 17.7345 42.0838 17.7267C41.9353 17.7189 41.783 17.7072 41.6267 17.6915V18.2657C41.6267 18.9611 41.6346 19.5704 41.6502 20.0939C41.6658 20.6095 41.6853 21.0548 41.7088 21.4298C41.74 21.8048 41.7752 22.1212 41.8142 22.379C41.8533 22.629 41.9002 22.8361 41.9549 23.0001V23.047H39.2478V23.0001C39.3025 22.8361 39.3494 22.6251 39.3885 22.3673C39.4353 22.1095 39.4705 21.7931 39.4939 21.4181C39.5252 21.0353 39.5486 20.5822 39.5642 20.0587C39.5799 19.5353 39.5877 18.922 39.5877 18.2189V15.2657C39.5877 14.5626 39.5799 13.9532 39.5642 13.4376C39.5486 12.9142 39.5252 12.465 39.4939 12.09C39.4705 11.7072 39.4353 11.3868 39.3885 11.129C39.3494 10.8712 39.3025 10.6603 39.2478 10.4962V10.4493C39.3728 10.4572 39.5056 10.465 39.6463 10.4728C39.7635 10.4806 39.8924 10.4884 40.033 10.4962C40.1814 10.4962 40.3299 10.4962 40.4783 10.4962C40.7283 10.4962 41.0994 10.4728 41.5916 10.4259C42.0838 10.379 42.6619 10.3556 43.326 10.3556C43.9978 10.3556 44.6072 10.4376 45.1541 10.6017C45.7088 10.7657 46.1814 11.0001 46.5721 11.3048C46.9705 11.6095 47.2752 11.9806 47.4861 12.4181C47.7049 12.8556 47.8142 13.3439 47.8142 13.8829C47.8142 14.3048 47.7556 14.6915 47.6385 15.0431C47.5213 15.3868 47.3572 15.6993 47.1463 15.9806C46.9353 16.254 46.6853 16.4962 46.3963 16.7072C46.1072 16.9181 45.7869 17.1017 45.4353 17.2579L47.8846 20.715C48.0955 20.9962 48.3064 21.2657 48.5174 21.5236C48.7361 21.7814 48.9431 22.0118 49.1385 22.215C49.3338 22.4181 49.5174 22.59 49.6892 22.7306C49.8611 22.8634 50.0056 22.9532 50.1228 23.0001V23.047H47.0525C47.0525 22.9767 47.0017 22.8556 46.9002 22.6837C46.8064 22.504 46.6931 22.3204 46.5603 22.1329C46.4353 21.9376 46.3064 21.7501 46.1736 21.5704C46.0486 21.3907 45.9549 21.2579 45.8924 21.172L43.4197 17.6915ZM58.8767 19.0861C58.6658 19.0861 58.4002 19.0861 58.0799 19.0861C57.7674 19.0861 57.4236 19.0861 57.0486 19.0861C56.6736 19.0861 56.2869 19.0861 55.8885 19.0861C55.49 19.0861 55.1111 19.09 54.7517 19.0978C54.3924 19.0978 54.0642 19.1017 53.7674 19.1095C53.4705 19.1095 53.24 19.1095 53.076 19.1095L52.6424 20.0236C52.4549 20.3986 52.2947 20.7267 52.1619 21.0079C52.0291 21.2814 51.9197 21.5236 51.8338 21.7345C51.7478 21.9454 51.6853 22.129 51.6463 22.2853C51.6072 22.4337 51.5877 22.5743 51.5877 22.7072C51.5877 22.7931 51.5916 22.8595 51.5994 22.9064C51.6072 22.9454 51.6189 22.9767 51.6346 23.0001V23.047H49.5721V23.0001C49.6267 22.9454 49.7127 22.8282 49.8299 22.6486C49.9471 22.4611 50.0799 22.2345 50.2283 21.9689C50.3846 21.7032 50.5486 21.4025 50.7205 21.0665C50.9002 20.7306 51.076 20.3829 51.2478 20.0236L56.0291 10.1564H56.908L61.5955 20.0236C61.7752 20.3986 61.9549 20.7579 62.1346 21.1017C62.3221 21.4454 62.4939 21.754 62.6502 22.0275C62.8064 22.2931 62.9431 22.5157 63.0603 22.6954C63.1775 22.8673 63.2556 22.9689 63.2947 23.0001V23.047H60.2947C60.3103 22.9845 60.3181 22.9298 60.3181 22.8829C60.3181 22.8282 60.3181 22.7697 60.3181 22.7072C60.3181 22.5353 60.2791 22.3282 60.201 22.0861C60.1306 21.8439 60.0408 21.5978 59.9314 21.3478C59.8299 21.09 59.7205 20.8439 59.6033 20.6095C59.4939 20.3751 59.4041 20.1798 59.3338 20.0236L58.8767 19.0861ZM53.533 18.172H54.2478C54.576 18.172 54.9236 18.172 55.2908 18.172C55.6658 18.1642 56.0408 18.1603 56.4158 18.1603C56.7908 18.1603 57.1541 18.1603 57.5056 18.1603C57.8572 18.1525 58.1736 18.1486 58.4549 18.1486L56.0291 12.9689L53.533 18.172ZM70.4314 12.8986H70.1971C70.1502 12.7657 70.0721 12.5978 69.9627 12.3947C69.8611 12.1915 69.7205 11.9923 69.5408 11.797C69.3689 11.6017 69.1541 11.4376 68.8963 11.3048C68.6385 11.1642 68.3299 11.0939 67.9705 11.0939C67.6971 11.0939 67.451 11.1407 67.2322 11.2345C67.0213 11.3204 66.8416 11.4415 66.6931 11.5978C66.5447 11.754 66.4314 11.9415 66.3533 12.1603C66.2752 12.3712 66.2361 12.6017 66.2361 12.8517C66.2361 13.2579 66.3572 13.6447 66.5994 14.0118C66.8494 14.379 67.158 14.7462 67.5252 15.1134C67.8924 15.4728 68.2908 15.8361 68.7205 16.2032C69.1502 16.5704 69.5486 16.9532 69.9158 17.3517C70.283 17.7501 70.5877 18.172 70.8299 18.6173C71.0799 19.0626 71.2049 19.5392 71.2049 20.047C71.2049 20.422 71.1346 20.8087 70.9939 21.2072C70.8611 21.6056 70.6424 21.965 70.3377 22.2853C70.033 22.6056 69.6424 22.8673 69.1658 23.0704C68.6892 23.2814 68.1111 23.3868 67.4314 23.3868C67.0564 23.3868 66.6971 23.3556 66.3533 23.2931C66.0174 23.2306 65.7049 23.1525 65.4158 23.0587C65.1346 22.9728 64.8806 22.879 64.6541 22.7775C64.4353 22.6681 64.2517 22.5665 64.1033 22.4728L64.3142 20.2579H64.5603C64.6385 20.5314 64.7517 20.8048 64.9002 21.0782C65.0564 21.3517 65.2439 21.6017 65.4627 21.8282C65.6892 22.047 65.951 22.2267 66.2478 22.3673C66.5525 22.5001 66.9002 22.5665 67.2908 22.5665C67.5642 22.5665 67.8221 22.5236 68.0642 22.4376C68.3064 22.3439 68.5135 22.215 68.6853 22.0509C68.865 21.8868 69.0056 21.6876 69.1072 21.4532C69.2088 21.2111 69.2596 20.9415 69.2596 20.6447C69.2596 20.2931 69.1892 19.9689 69.0486 19.672C68.908 19.3673 68.7205 19.0782 68.4861 18.8048C68.2517 18.5236 67.9861 18.254 67.6892 17.9962C67.4002 17.7384 67.0994 17.4767 66.7869 17.2111C66.4744 16.9454 66.1697 16.6759 65.8728 16.4025C65.5838 16.1212 65.3221 15.8204 65.0877 15.5001C64.8533 15.1798 64.6658 14.84 64.5252 14.4806C64.3846 14.1134 64.3142 13.7111 64.3142 13.2736C64.3142 12.8126 64.4119 12.3986 64.6072 12.0314C64.8025 11.6642 65.0603 11.3556 65.3806 11.1056C65.701 10.8478 66.0681 10.6525 66.4822 10.5197C66.8963 10.379 67.326 10.3087 67.7713 10.3087C68.0994 10.3087 68.4041 10.3322 68.6853 10.379C68.9744 10.4259 69.2322 10.4845 69.4588 10.5548C69.6931 10.6173 69.8963 10.6837 70.0681 10.754C70.24 10.8165 70.3806 10.8673 70.49 10.9064L70.4314 12.8986ZM80.8494 10.4493C81.615 10.4493 82.4002 10.4493 83.2049 10.4493C84.0096 10.4415 84.7556 10.4337 85.4431 10.4259C86.1306 10.4103 86.7205 10.3947 87.2127 10.379C87.7127 10.3634 88.0408 10.34 88.1971 10.3087L87.74 11.5743C87.5291 11.5197 87.2908 11.4689 87.0252 11.422C86.7908 11.3829 86.5056 11.3478 86.1697 11.3165C85.8416 11.2775 85.4588 11.2579 85.0213 11.2579C84.865 11.2579 84.6853 11.2657 84.4822 11.2814C84.2791 11.2892 84.0838 11.3009 83.8963 11.3165C83.6775 11.3322 83.4549 11.3478 83.2283 11.3634V15.9923C83.8611 15.9845 84.4314 15.9689 84.9392 15.9454C85.4471 15.922 85.8806 15.8907 86.24 15.8517C86.6619 15.8204 87.033 15.7775 87.3533 15.7228L87.0721 17.1173C86.6424 17.0626 86.2088 17.0157 85.7713 16.9767C85.3963 16.9376 84.9822 16.9064 84.5291 16.8829C84.076 16.8517 83.6424 16.8361 83.2283 16.8361V22.1564C83.9549 22.1564 84.6228 22.129 85.2322 22.0743C85.8416 22.0118 86.3728 21.9454 86.826 21.8751C87.3572 21.7892 87.8377 21.6915 88.2674 21.5822L87.9978 23.1173C87.8806 23.1095 87.6892 23.0978 87.4236 23.0822C87.1658 23.0743 86.8924 23.0665 86.6033 23.0587C86.3221 23.0587 86.0564 23.0548 85.8064 23.047C85.5564 23.047 85.3846 23.047 85.2908 23.047H80.8494V23.0001C80.9041 22.8361 80.951 22.6251 80.99 22.3673C81.0369 22.1095 81.0721 21.7931 81.0955 21.4181C81.1267 21.0353 81.1502 20.5822 81.1658 20.0587C81.1814 19.5353 81.1892 18.922 81.1892 18.2189V15.2657C81.1892 14.5626 81.1814 13.9532 81.1658 13.4376C81.1502 12.9142 81.1267 12.465 81.0955 12.09C81.0721 11.7072 81.0369 11.3868 80.99 11.129C80.951 10.8712 80.9041 10.6603 80.8494 10.4962V10.4493ZM93.2596 22.1329C93.9861 22.1329 94.6541 22.1056 95.2635 22.0509C95.8806 21.9884 96.4197 21.922 96.8806 21.8517C97.4197 21.7657 97.908 21.6681 98.3455 21.5587L98.076 23.1173C97.9666 23.1095 97.7791 23.0978 97.5135 23.0822C97.2556 23.0743 96.9822 23.0665 96.6931 23.0587C96.4041 23.0587 96.1346 23.0548 95.8846 23.047C95.6346 23.047 95.4627 23.047 95.3689 23.047H90.8806V23.0001C90.9353 22.8361 90.9822 22.6251 91.0213 22.3673C91.0681 22.1095 91.1033 21.7931 91.1267 21.4181C91.158 21.0353 91.1814 20.5822 91.1971 20.0587C91.2127 19.5353 91.2205 18.922 91.2205 18.2189V15.2657C91.2205 14.5626 91.2127 13.9532 91.1971 13.4376C91.1814 12.9142 91.158 12.465 91.1267 12.09C91.1033 11.7072 91.0681 11.3868 91.0213 11.129C90.9822 10.8712 90.9353 10.6603 90.8806 10.4962V10.4493H93.5877V10.4962C93.533 10.6603 93.4861 10.8712 93.4471 11.129C93.408 11.3868 93.3728 11.7072 93.3416 12.09C93.3181 12.465 93.2986 12.9142 93.283 13.4376C93.2674 13.9532 93.2596 14.5626 93.2596 15.2657V22.1329ZM100.373 10.4493C101.138 10.4493 101.924 10.4493 102.728 10.4493C103.533 10.4415 104.279 10.4337 104.967 10.4259C105.654 10.4103 106.244 10.3947 106.736 10.379C107.236 10.3634 107.564 10.34 107.72 10.3087L107.263 11.5743C107.053 11.5197 106.814 11.4689 106.549 11.422C106.314 11.3829 106.029 11.3478 105.693 11.3165C105.365 11.2775 104.982 11.2579 104.545 11.2579C104.388 11.2579 104.209 11.2657 104.006 11.2814C103.803 11.2892 103.607 11.3009 103.42 11.3165C103.201 11.3322 102.978 11.3478 102.752 11.3634V15.9923C103.385 15.9845 103.955 15.9689 104.463 15.9454C104.97 15.922 105.404 15.8907 105.763 15.8517C106.185 15.8204 106.556 15.7775 106.877 15.7228L106.595 17.1173C106.166 17.0626 105.732 17.0157 105.295 16.9767C104.92 16.9376 104.506 16.9064 104.053 16.8829C103.599 16.8517 103.166 16.8361 102.752 16.8361V22.1564C103.478 22.1564 104.146 22.129 104.756 22.0743C105.365 22.0118 105.896 21.9454 106.349 21.8751C106.881 21.7892 107.361 21.6915 107.791 21.5822L107.521 23.1173C107.404 23.1095 107.213 23.0978 106.947 23.0822C106.689 23.0743 106.416 23.0665 106.127 23.0587C105.845 23.0587 105.58 23.0548 105.33 23.047C105.08 23.047 104.908 23.047 104.814 23.047H100.373V23.0001C100.428 22.8361 100.474 22.6251 100.513 22.3673C100.56 22.1095 100.595 21.7931 100.619 21.4181C100.65 21.0353 100.674 20.5822 100.689 20.0587C100.705 19.5353 100.713 18.922 100.713 18.2189V15.2657C100.713 14.5626 100.705 13.9532 100.689 13.4376C100.674 12.9142 100.65 12.465 100.619 12.09C100.595 11.7072 100.56 11.3868 100.513 11.129C100.474 10.8712 100.428 10.6603 100.373 10.4962V10.4493ZM121.924 21.629C121.924 21.7306 121.912 21.8165 121.888 21.8868C121.873 21.9572 121.83 22.0157 121.76 22.0626C121.205 22.4532 120.556 22.7657 119.814 23.0001C119.08 23.2267 118.217 23.34 117.224 23.34C116.107 23.34 115.088 23.1798 114.166 22.8595C113.252 22.5392 112.467 22.0939 111.81 21.5236C111.154 20.9454 110.642 20.254 110.275 19.4493C109.916 18.6447 109.736 17.754 109.736 16.7775C109.736 15.9415 109.9 15.129 110.228 14.34C110.564 13.5509 111.045 12.8517 111.67 12.2423C112.295 11.6329 113.053 11.1447 113.943 10.7775C114.842 10.4103 115.853 10.2267 116.978 10.2267C117.564 10.2267 118.119 10.2618 118.642 10.3322C119.166 10.3947 119.67 10.4962 120.154 10.6368L121.033 12.7462L120.916 12.8282C120.447 12.2892 119.881 11.8634 119.217 11.5509C118.553 11.2306 117.791 11.0704 116.931 11.0704C116.228 11.0704 115.58 11.1837 114.986 11.4103C114.4 11.6368 113.888 11.9689 113.451 12.4064C113.021 12.8361 112.685 13.3673 112.443 14.0001C112.201 14.6329 112.08 15.3517 112.08 16.1564C112.08 17.0626 112.193 17.9025 112.42 18.6759C112.646 19.4493 112.986 20.1212 113.439 20.6915C113.892 21.254 114.451 21.6954 115.115 22.0157C115.787 22.3361 116.568 22.4962 117.459 22.4962C118.224 22.4962 118.818 22.3986 119.24 22.2032C119.67 22.0079 119.885 21.7853 119.885 21.5353V20.9142C119.885 20.5079 119.881 20.1564 119.873 19.8595C119.865 19.5626 119.853 19.3087 119.838 19.0978C119.822 18.879 119.799 18.6915 119.767 18.5353C119.744 18.379 119.713 18.2345 119.674 18.1017V18.0548H122.17V18.1017C122.131 18.2189 122.095 18.3595 122.064 18.5236C122.033 18.6876 122.006 18.8829 121.982 19.1095C121.967 19.3361 121.951 19.6017 121.935 19.9064C121.928 20.2111 121.924 20.5626 121.924 20.9611V21.629ZM132.377 19.0861C132.166 19.0861 131.9 19.0861 131.58 19.0861C131.267 19.0861 130.924 19.0861 130.549 19.0861C130.174 19.0861 129.787 19.0861 129.388 19.0861C128.99 19.0861 128.611 19.09 128.252 19.0978C127.892 19.0978 127.564 19.1017 127.267 19.1095C126.97 19.1095 126.74 19.1095 126.576 19.1095L126.142 20.0236C125.955 20.3986 125.795 20.7267 125.662 21.0079C125.529 21.2814 125.42 21.5236 125.334 21.7345C125.248 21.9454 125.185 22.129 125.146 22.2853C125.107 22.4337 125.088 22.5743 125.088 22.7072C125.088 22.7931 125.092 22.8595 125.099 22.9064C125.107 22.9454 125.119 22.9767 125.135 23.0001V23.047H123.072V23.0001C123.127 22.9454 123.213 22.8282 123.33 22.6486C123.447 22.4611 123.58 22.2345 123.728 21.9689C123.885 21.7032 124.049 21.4025 124.22 21.0665C124.4 20.7306 124.576 20.3829 124.748 20.0236L129.529 10.1564H130.408L135.095 20.0236C135.275 20.3986 135.455 20.7579 135.635 21.1017C135.822 21.4454 135.994 21.754 136.15 22.0275C136.306 22.2931 136.443 22.5157 136.56 22.6954C136.678 22.8673 136.756 22.9689 136.795 23.0001V23.047H133.795C133.81 22.9845 133.818 22.9298 133.818 22.8829C133.818 22.8282 133.818 22.7697 133.818 22.7072C133.818 22.5353 133.779 22.3282 133.701 22.0861C133.631 21.8439 133.541 21.5978 133.431 21.3478C133.33 21.09 133.22 20.8439 133.103 20.6095C132.994 20.3751 132.904 20.1798 132.834 20.0236L132.377 19.0861ZM127.033 18.172H127.748C128.076 18.172 128.424 18.172 128.791 18.172C129.166 18.1642 129.541 18.1603 129.916 18.1603C130.291 18.1603 130.654 18.1603 131.006 18.1603C131.357 18.1525 131.674 18.1486 131.955 18.1486L129.529 12.9689L127.033 18.172ZM149.486 23.2111H149.029L139.713 14.047V18.2189C139.713 18.922 139.717 19.5353 139.724 20.0587C139.732 20.5822 139.744 21.0353 139.76 21.4181C139.783 21.7931 139.81 22.1095 139.842 22.3673C139.881 22.6251 139.928 22.8361 139.982 23.0001V23.047H138.224V23.0001C138.279 22.8361 138.326 22.6251 138.365 22.3673C138.404 22.1095 138.435 21.7931 138.459 21.4181C138.482 21.0353 138.498 20.5822 138.506 20.0587C138.513 19.5353 138.517 18.922 138.517 18.2189V15.2657C138.517 14.5626 138.513 13.9532 138.506 13.4376C138.498 12.9142 138.482 12.465 138.459 12.09C138.435 11.7072 138.404 11.3868 138.365 11.129C138.326 10.8712 138.279 10.6603 138.224 10.4962V10.4493H138.951L148.279 19.6603V15.2657C148.279 14.5626 148.275 13.9532 148.267 13.4376C148.26 12.9142 148.244 12.465 148.22 12.09C148.205 11.7072 148.181 11.3868 148.15 11.129C148.119 10.8712 148.076 10.6603 148.021 10.4962V10.4493H149.767V10.4962C149.713 10.6603 149.666 10.8712 149.627 11.129C149.595 11.3868 149.568 11.7072 149.545 12.09C149.521 12.465 149.506 12.9142 149.498 13.4376C149.49 13.9532 149.486 14.5626 149.486 15.2657V23.2111ZM156.072 11.3165C155.361 11.3165 154.713 11.3478 154.127 11.4103C153.549 11.4728 153.049 11.5392 152.627 11.6095C152.142 11.6954 151.705 11.7892 151.314 11.8907L151.549 10.379C151.666 10.3947 151.857 10.4064 152.123 10.4142C152.388 10.422 152.666 10.4298 152.955 10.4376C153.252 10.4376 153.529 10.4415 153.787 10.4493C154.053 10.4493 154.236 10.4493 154.338 10.4493H159.881C159.974 10.4493 160.146 10.4493 160.396 10.4493C160.654 10.4415 160.928 10.4376 161.217 10.4376C161.506 10.4298 161.783 10.422 162.049 10.4142C162.314 10.4064 162.506 10.3947 162.623 10.379L162.857 11.8907C162.482 11.7892 162.053 11.6954 161.568 11.6095C161.154 11.5392 160.654 11.4728 160.068 11.4103C159.49 11.3478 158.838 11.3165 158.111 11.3165V18.2189C158.111 18.922 158.119 19.5353 158.135 20.0587C158.15 20.5822 158.17 21.0353 158.193 21.4181C158.224 21.7931 158.26 22.1095 158.299 22.3673C158.338 22.6251 158.385 22.8361 158.439 23.0001V23.047H155.732V23.0001C155.787 22.8361 155.834 22.6251 155.873 22.3673C155.912 22.1095 155.947 21.7931 155.978 21.4181C156.01 21.0353 156.033 20.5822 156.049 20.0587C156.064 19.5353 156.072 18.922 156.072 18.2189V11.3165ZM164.404 10.4493C165.17 10.4493 165.955 10.4493 166.76 10.4493C167.564 10.4415 168.31 10.4337 168.998 10.4259C169.685 10.4103 170.275 10.3947 170.767 10.379C171.267 10.3634 171.595 10.34 171.752 10.3087L171.295 11.5743C171.084 11.5197 170.845 11.4689 170.58 11.422C170.345 11.3829 170.06 11.3478 169.724 11.3165C169.396 11.2775 169.013 11.2579 168.576 11.2579C168.42 11.2579 168.24 11.2657 168.037 11.2814C167.834 11.2892 167.638 11.3009 167.451 11.3165C167.232 11.3322 167.01 11.3478 166.783 11.3634V15.9923C167.416 15.9845 167.986 15.9689 168.494 15.9454C169.002 15.922 169.435 15.8907 169.795 15.8517C170.217 15.8204 170.588 15.7775 170.908 15.7228L170.627 17.1173C170.197 17.0626 169.763 17.0157 169.326 16.9767C168.951 16.9376 168.537 16.9064 168.084 16.8829C167.631 16.8517 167.197 16.8361 166.783 16.8361V22.1564C167.51 22.1564 168.178 22.129 168.787 22.0743C169.396 22.0118 169.928 21.9454 170.381 21.8751C170.912 21.7892 171.392 21.6915 171.822 21.5822L171.553 23.1173C171.435 23.1095 171.244 23.0978 170.978 23.0822C170.72 23.0743 170.447 23.0665 170.158 23.0587C169.877 23.0587 169.611 23.0548 169.361 23.047C169.111 23.047 168.939 23.047 168.845 23.047H164.404V23.0001C164.459 22.8361 164.506 22.6251 164.545 22.3673C164.592 22.1095 164.627 21.7931 164.65 21.4181C164.681 21.0353 164.705 20.5822 164.72 20.0587C164.736 19.5353 164.744 18.922 164.744 18.2189V15.2657C164.744 14.5626 164.736 13.9532 164.72 13.4376C164.705 12.9142 164.681 12.465 164.65 12.09C164.627 11.7072 164.592 11.3868 164.545 11.129C164.506 10.8712 164.459 10.6603 164.404 10.4962V10.4493ZM180.142 12.8986H179.908C179.861 12.7657 179.783 12.5978 179.674 12.3947C179.572 12.1915 179.431 11.9923 179.252 11.797C179.08 11.6017 178.865 11.4376 178.607 11.3048C178.349 11.1642 178.041 11.0939 177.681 11.0939C177.408 11.0939 177.162 11.1407 176.943 11.2345C176.732 11.3204 176.553 11.4415 176.404 11.5978C176.256 11.754 176.142 11.9415 176.064 12.1603C175.986 12.3712 175.947 12.6017 175.947 12.8517C175.947 13.2579 176.068 13.6447 176.31 14.0118C176.56 14.379 176.869 14.7462 177.236 15.1134C177.603 15.4728 178.002 15.8361 178.431 16.2032C178.861 16.5704 179.26 16.9532 179.627 17.3517C179.994 17.7501 180.299 18.172 180.541 18.6173C180.791 19.0626 180.916 19.5392 180.916 20.047C180.916 20.422 180.845 20.8087 180.705 21.2072C180.572 21.6056 180.353 21.965 180.049 22.2853C179.744 22.6056 179.353 22.8673 178.877 23.0704C178.4 23.2814 177.822 23.3868 177.142 23.3868C176.767 23.3868 176.408 23.3556 176.064 23.2931C175.728 23.2306 175.416 23.1525 175.127 23.0587C174.845 22.9728 174.592 22.879 174.365 22.7775C174.146 22.6681 173.963 22.5665 173.814 22.4728L174.025 20.2579H174.271C174.349 20.5314 174.463 20.8048 174.611 21.0782C174.767 21.3517 174.955 21.6017 175.174 21.8282C175.4 22.047 175.662 22.2267 175.959 22.3673C176.263 22.5001 176.611 22.5665 177.002 22.5665C177.275 22.5665 177.533 22.5236 177.775 22.4376C178.017 22.3439 178.224 22.215 178.396 22.0509C178.576 21.8868 178.717 21.6876 178.818 21.4532C178.92 21.2111 178.97 20.9415 178.97 20.6447C178.97 20.2931 178.9 19.9689 178.76 19.672C178.619 19.3673 178.431 19.0782 178.197 18.8048C177.963 18.5236 177.697 18.254 177.4 17.9962C177.111 17.7384 176.81 17.4767 176.498 17.2111C176.185 16.9454 175.881 16.6759 175.584 16.4025C175.295 16.1212 175.033 15.8204 174.799 15.5001C174.564 15.1798 174.377 14.84 174.236 14.4806C174.095 14.1134 174.025 13.7111 174.025 13.2736C174.025 12.8126 174.123 12.3986 174.318 12.0314C174.513 11.6642 174.771 11.3556 175.092 11.1056C175.412 10.8478 175.779 10.6525 176.193 10.5197C176.607 10.379 177.037 10.3087 177.482 10.3087C177.81 10.3087 178.115 10.3322 178.396 10.379C178.685 10.4259 178.943 10.4845 179.17 10.5548C179.404 10.6173 179.607 10.6837 179.779 10.754C179.951 10.8165 180.092 10.8673 180.201 10.9064L180.142 12.8986Z" fill="#763F21"/>
</svg>
