<svg width="25" height="25" viewBox="0 0 25 25" fill="none" xmlns="http://www.w3.org/2000/svg">
<path fill-rule="evenodd" clip-rule="evenodd" d="M12.0797 1.84827H12.1917C14.0297 1.84827 15.4857 1.84827 16.6247 2.00127C17.7967 2.15927 18.7457 2.49127 19.4947 3.23927C20.2427 3.98827 20.5747 4.93727 20.7327 6.10927C20.8857 7.24927 20.8857 8.70427 20.8857 10.5423V14.6543C20.8857 16.4923 20.8857 17.9483 20.7327 19.0873C20.5747 20.2593 20.2427 21.2083 19.4947 21.9573C18.7457 22.7053 17.7967 23.0373 16.6247 23.1953C15.4847 23.3483 14.0297 23.3483 12.1917 23.3483H12.0797C10.2417 23.3483 8.78574 23.3483 7.64674 23.1953C6.47474 23.0373 5.52574 22.7053 4.77674 21.9573C4.02874 21.2083 3.69674 20.2593 3.53874 19.0873C3.38574 17.9473 3.38574 16.4923 3.38574 14.6543V10.5423C3.38574 8.70427 3.38574 7.24827 3.53874 6.10927C3.69674 4.93727 4.02874 3.98827 4.77674 3.23927C5.52574 2.49127 6.47474 2.15927 7.64674 2.00127C8.78674 1.84827 10.2417 1.84827 12.0797 1.84827ZM7.84574 3.48827C6.83974 3.62327 6.25974 3.87727 5.83574 4.30027C5.41374 4.72327 5.15974 5.30327 5.02474 6.30927C4.88674 7.33727 4.88474 8.69127 4.88474 10.5983V14.5983C4.88474 16.5053 4.88674 17.8603 5.02474 18.8883C5.15974 19.8933 5.41374 20.4733 5.83674 20.8963C6.25974 21.3193 6.83974 21.5733 7.84574 21.7083C8.87374 21.8463 10.2277 21.8483 12.1347 21.8483C14.0417 21.8483 15.3967 21.8463 16.4247 21.7083C17.4297 21.5733 18.0097 21.3193 18.4327 20.8963C18.8557 20.4733 19.1097 19.8933 19.2447 18.8873C19.3827 17.8603 19.3847 16.5053 19.3847 14.5983V10.5983C19.3847 8.69127 19.3827 7.33727 19.2447 6.30827C19.1097 5.30327 18.8557 4.72327 18.4327 4.30027C18.0097 3.87727 17.4297 3.62327 16.4237 3.48827C15.3957 3.35027 14.0417 3.34827 12.1347 3.34827C10.2277 3.34827 8.87474 3.35027 7.84574 3.48827ZM8.38574 5.59827C8.38574 5.39935 8.46476 5.20859 8.60541 5.06794C8.74606 4.92728 8.93683 4.84827 9.13574 4.84827H15.1357C15.3347 4.84827 15.5254 4.92728 15.6661 5.06794C15.8067 5.20859 15.8857 5.39935 15.8857 5.59827C15.8857 5.79718 15.8067 5.98794 15.6661 6.1286C15.5254 6.26925 15.3347 6.34827 15.1357 6.34827H9.13574C8.93683 6.34827 8.74606 6.26925 8.60541 6.1286C8.46476 5.98794 8.38574 5.79718 8.38574 5.59827ZM12.1357 16.3483C11.8042 16.3483 11.4863 16.48 11.2519 16.7144C11.0174 16.9488 10.8857 17.2667 10.8857 17.5983C10.8857 17.9298 11.0174 18.2477 11.2519 18.4822C11.4863 18.7166 11.8042 18.8483 12.1357 18.8483C12.4673 18.8483 12.7852 18.7166 13.0196 18.4822C13.254 18.2477 13.3857 17.9298 13.3857 17.5983C13.3857 17.2667 13.254 16.9488 13.0196 16.7144C12.7852 16.48 12.4673 16.3483 12.1357 16.3483ZM9.38574 17.5983C9.38574 16.8689 9.67547 16.1694 10.1912 15.6537C10.7069 15.138 11.4064 14.8483 12.1357 14.8483C12.8651 14.8483 13.5646 15.138 14.0803 15.6537C14.596 16.1694 14.8857 16.8689 14.8857 17.5983C14.8857 18.3276 14.596 19.0271 14.0803 19.5428C13.5646 20.0585 12.8651 20.3483 12.1357 20.3483C11.4064 20.3483 10.7069 20.0585 10.1912 19.5428C9.67547 19.0271 9.38574 18.3276 9.38574 17.5983Z" fill="#5D381D"/>
</svg>
