<svg width="25" height="25" viewBox="0 0 25 25" fill="none" xmlns="http://www.w3.org/2000/svg">
<path fill-rule="evenodd" clip-rule="evenodd" d="M12.1357 1.84802C10.876 1.84802 9.66778 2.34847 8.77698 3.23927C7.88618 4.13006 7.38574 5.33824 7.38574 6.59802C7.38574 7.8578 7.88618 9.06598 8.77698 9.95678C9.66778 10.8476 10.876 11.348 12.1357 11.348C13.3955 11.348 14.6037 10.8476 15.4945 9.95678C16.3853 9.06598 16.8857 7.8578 16.8857 6.59802C16.8857 5.33824 16.3853 4.13006 15.4945 3.23927C14.6037 2.34847 13.3955 1.84802 12.1357 1.84802ZM8.88574 6.59802C8.88574 5.73607 9.22815 4.90942 9.83764 4.29993C10.4471 3.69043 11.2738 3.34802 12.1357 3.34802C12.9977 3.34802 13.8243 3.69043 14.4338 4.29993C15.0433 4.90942 15.3857 5.73607 15.3857 6.59802C15.3857 7.45998 15.0433 8.28663 14.4338 8.89612C13.8243 9.50561 12.9977 9.84802 12.1357 9.84802C11.2738 9.84802 10.4471 9.50561 9.83764 8.89612C9.22815 8.28663 8.88574 7.45998 8.88574 6.59802ZM12.1357 12.848C9.82274 12.848 7.69074 13.374 6.11174 14.262C4.55574 15.138 3.38574 16.464 3.38574 18.098V18.2C3.38474 19.362 3.38374 20.82 4.66274 21.862C5.29174 22.374 6.17274 22.739 7.36274 22.979C8.55474 23.221 10.1097 23.348 12.1357 23.348C14.1617 23.348 15.7157 23.221 16.9097 22.979C18.0997 22.739 18.9797 22.374 19.6097 21.862C20.8887 20.82 20.8867 19.362 20.8857 18.2V18.098C20.8857 16.464 19.7157 15.138 18.1607 14.262C16.5807 13.374 14.4497 12.848 12.1357 12.848ZM4.88574 18.098C4.88574 17.247 5.50774 16.323 6.84674 15.57C8.16274 14.83 10.0307 14.348 12.1367 14.348C14.2407 14.348 16.1087 14.83 17.4247 15.57C18.7647 16.323 19.3857 17.247 19.3857 18.098C19.3857 19.406 19.3457 20.142 18.6617 20.698C18.2917 21 17.6717 21.295 16.6117 21.509C15.5547 21.723 14.1097 21.848 12.1357 21.848C10.1617 21.848 8.71574 21.723 7.65974 21.509C6.59974 21.295 5.97974 21 5.60974 20.699C4.92574 20.142 4.88574 19.406 4.88574 18.098Z" fill="#5D381D"/>
</svg>
